<svg width="48" height="49" viewBox="0 0 48 49" fill="none" xmlns="http://www.w3.org/2000/svg">
<path fill-rule="evenodd" clip-rule="evenodd" d="M32.8218 5.9181L32.8238 7.41734C38.333 7.84912 41.9724 11.6032 41.9782 17.3604L42 34.2119C42.0078 40.4889 38.0644 44.3509 31.7436 44.3609L16.3038 44.3809C10.0224 44.3889 6.02963 40.4349 6.02173 34.1399L6.00001 17.4863C5.99211 11.6912 9.50305 7.94708 15.0123 7.44134L15.0104 5.94208C15.0084 5.06252 15.66 4.40086 16.5289 4.40086C17.3977 4.39886 18.0494 5.05852 18.0513 5.93808L18.0533 7.33738L29.7828 7.3214L29.7808 5.9221C29.7788 5.04254 30.4304 4.38286 31.2994 4.38086C32.1484 4.37886 32.8198 5.03854 32.8218 5.9181ZM9.04295 18.104L38.9392 18.064V17.3644C38.8544 13.0665 36.698 10.8116 32.8276 10.4758L32.8296 12.015C32.8296 12.8746 32.1602 13.5563 31.3112 13.5563C30.4424 13.5583 29.7886 12.8786 29.7886 12.019L29.7868 10.3999L18.0573 10.4158L18.0592 12.033C18.0592 12.8946 17.4096 13.5743 16.5407 13.5743C15.6719 13.5763 15.0183 12.8986 15.0183 12.037L15.0163 10.4978C11.1657 10.8836 9.03505 13.1465 9.04097 17.4823L9.04295 18.104ZM30.4798 27.1895V27.2115C30.4996 28.1311 31.25 28.8287 32.1602 28.8087C33.0488 28.7867 33.7578 28.0251 33.738 27.1055C33.6966 26.2259 32.9836 25.5083 32.097 25.5103C31.1888 25.5303 30.4778 26.2699 30.4798 27.1895ZM32.1108 36.1649C31.2026 36.1449 30.47 35.3873 30.468 34.4679C30.4482 33.5483 31.1768 32.7867 32.0852 32.7647H32.105C33.033 32.7647 33.7854 33.5223 33.7854 34.4619C33.7874 35.4013 33.037 36.1629 32.1108 36.1649ZM22.3442 27.2215C22.3838 28.1411 23.136 28.8587 24.0444 28.8187C24.933 28.7767 25.642 28.0171 25.6024 27.0975C25.5806 26.1979 24.85 25.4983 23.9614 25.5003C23.0532 25.5403 22.3422 26.3019 22.3442 27.2215ZM24.0524 36.0751C23.144 36.1151 22.3936 35.3973 22.3522 34.4779C22.3522 33.5583 23.061 32.7987 23.9694 32.7567C24.858 32.7547 25.5906 33.4543 25.6104 34.3519C25.6518 35.2735 24.941 36.0331 24.0524 36.0751ZM14.2087 27.2915C14.2482 28.2109 15.0005 28.9307 15.9088 28.8887C16.7974 28.8487 17.5063 28.0871 17.4649 27.1675C17.4451 26.2679 16.7145 25.5683 15.8239 25.5703C14.9156 25.6103 14.2067 26.3719 14.2087 27.2915ZM15.9167 36.0851C15.0084 36.1271 14.258 35.4073 14.2166 34.4879C14.2146 33.5683 14.9255 32.8067 15.8338 32.7667C16.7224 32.7647 17.455 33.4643 17.4747 34.3639C17.5162 35.2835 16.8073 36.0451 15.9167 36.0851Z" fill="white"/>
</svg>
