<svg width="126" height="172" viewBox="0 0 126 172" fill="none" xmlns="http://www.w3.org/2000/svg">
<g filter="url(#filter0_ddd_1156_1231)">
<rect x="31" width="64" height="64" rx="32" fill="#FF5722"/>
<path fill-rule="evenodd" clip-rule="evenodd" d="M59.6667 32.737C63.3395 32.737 66.2835 29.7548 66.2835 26.0345C66.2835 22.3142 63.3395 19.332 59.6667 19.332C55.994 19.332 53.0499 22.3142 53.0499 26.0345C53.0499 29.7548 55.994 32.737 59.6667 32.737ZM59.6667 36.019C54.2724 36.019 49.6667 36.8815 49.6667 40.3272C49.6667 43.7718 54.2443 44.6654 59.6667 44.6654C65.0598 44.6654 69.6667 43.8028 69.6667 40.357C69.6667 36.9112 65.0891 36.019 59.6667 36.019ZM73.5306 28.7825H75.1347C75.795 28.7825 76.3334 29.3284 76.3334 29.998C76.3334 30.6675 75.795 31.2135 75.1347 31.2135H73.5306V32.7832C73.5306 33.4528 72.9937 33.9987 72.3321 33.9987C71.6718 33.9987 71.1334 33.4528 71.1334 32.7832V31.2135H69.5321C68.8703 31.2135 68.3334 30.6675 68.3334 29.998C68.3334 29.3284 68.8703 28.7825 69.5321 28.7825H71.1334V27.2142C71.1334 26.5446 71.6718 25.9987 72.3321 25.9987C72.9937 25.9987 73.5306 26.5446 73.5306 27.2142V28.7825Z" fill="white"/>
</g>
<defs>
<filter id="filter0_ddd_1156_1231" x="0" y="0" width="126" height="172" filterUnits="userSpaceOnUse" color-interpolation-filters="sRGB">
<feFlood flood-opacity="0" result="BackgroundImageFix"/>
<feColorMatrix in="SourceAlpha" type="matrix" values="0 0 0 0 0 0 0 0 0 0 0 0 0 0 0 0 0 0 127 0" result="hardAlpha"/>
<feOffset dy="19"/>
<feGaussianBlur stdDeviation="9.5"/>
<feColorMatrix type="matrix" values="0 0 0 0 0 0 0 0 0 0 0 0 0 0 0 0 0 0 0.09 0"/>
<feBlend mode="normal" in2="BackgroundImageFix" result="effect1_dropShadow_1156_1231"/>
<feColorMatrix in="SourceAlpha" type="matrix" values="0 0 0 0 0 0 0 0 0 0 0 0 0 0 0 0 0 0 127 0" result="hardAlpha"/>
<feOffset dy="43"/>
<feGaussianBlur stdDeviation="13"/>
<feColorMatrix type="matrix" values="0 0 0 0 0 0 0 0 0 0 0 0 0 0 0 0 0 0 0.05 0"/>
<feBlend mode="normal" in2="effect1_dropShadow_1156_1231" result="effect2_dropShadow_1156_1231"/>
<feColorMatrix in="SourceAlpha" type="matrix" values="0 0 0 0 0 0 0 0 0 0 0 0 0 0 0 0 0 0 127 0" result="hardAlpha"/>
<feOffset dy="77"/>
<feGaussianBlur stdDeviation="15.5"/>
<feColorMatrix type="matrix" values="0 0 0 0 0 0 0 0 0 0 0 0 0 0 0 0 0 0 0.01 0"/>
<feBlend mode="normal" in2="effect2_dropShadow_1156_1231" result="effect3_dropShadow_1156_1231"/>
<feBlend mode="normal" in="SourceGraphic" in2="effect3_dropShadow_1156_1231" result="shape"/>
</filter>
</defs>
</svg>
