<svg width="1184" height="160" viewBox="0 0 1184 160" fill="none" xmlns="http://www.w3.org/2000/svg">
<path d="M22.801 83.2256C24.6227 88.1611 30.1133 90.6875 35.0502 88.87C39.9844 87.0399 42.5164 81.5549 40.6877 76.618C38.8645 71.6753 33.3825 69.1532 28.4384 70.9749C23.4986 72.8037 20.9765 78.2858 22.801 83.2256Z" fill="white"/>
<path d="M10.608 89.4216C15.8741 89.4216 20.1431 85.1527 20.1431 79.8866C20.1431 74.6205 15.8741 70.3516 10.608 70.3516C5.34198 70.3516 1.073 74.6205 1.073 79.8866C1.073 85.1527 5.34198 89.4216 10.608 89.4216Z" fill="white"/>
<path d="M12.2338 79.7841C12.2338 80.7557 11.4444 81.5521 10.4728 81.5521C9.49698 81.5521 8.70898 80.7571 8.70898 79.7841C8.70898 78.8139 9.49698 78.0273 10.4728 78.0273C11.4444 78.0288 12.2338 78.8139 12.2338 79.7841Z" fill="#191825" fill-opacity="0.5"/>
<path d="M33.4825 79.7841C33.4825 80.7557 32.696 81.5521 31.7244 81.5521C30.7457 81.5521 29.9606 80.7571 29.9606 79.7841C29.9606 78.8139 30.7457 78.0273 31.7244 78.0273C32.6974 78.0288 33.4825 78.8139 33.4825 79.7841Z" fill="#191825" fill-opacity="0.5"/>
<path d="M5.23364 79.7868C5.23364 82.6775 7.58492 85.0246 10.4757 85.0246C13.3593 85.0246 15.7092 82.6775 15.7092 79.7868C15.7092 76.9031 13.3579 74.5547 10.4757 74.5547C7.58633 74.5575 5.23364 76.9046 5.23364 79.7868ZM7.03982 79.7868C7.03982 77.8959 8.58475 76.358 10.4785 76.358C12.3694 76.358 13.9058 77.9001 13.9058 79.7868C13.9058 81.6834 12.3694 83.2241 10.4785 83.2241C8.58475 83.2255 7.03982 81.6862 7.03982 79.7868Z" fill="#191825" fill-opacity="0.5"/>
<path d="M26.4851 79.7868C26.4851 82.6775 28.8336 85.0246 31.7229 85.0246C34.608 85.0246 36.955 82.6775 36.955 79.7868C36.955 76.9031 34.608 74.5547 31.7229 74.5547C28.835 74.5575 26.4851 76.9046 26.4851 79.7868ZM28.2913 79.7868C28.2913 77.8959 29.832 76.358 31.7271 76.358C33.618 76.358 35.1531 77.9001 35.1531 79.7868C35.1531 81.6834 33.618 83.2241 31.7271 83.2241C29.8291 83.2255 28.2913 81.6862 28.2913 79.7868Z" fill="#191825" fill-opacity="0.5"/>
<path d="M28.0715 69.9736C29.1758 69.5669 30.3056 69.3692 31.4212 69.3381C28.3822 67.9782 24.9421 67.2891 21.1306 67.2891C17.3488 67.2891 13.8579 67.9937 10.8203 69.2929C16.3179 69.4017 20.7875 73.7074 21.173 79.1344C21.2662 77.8889 21.5712 76.6575 22.1093 75.491C23.2941 72.911 25.4138 70.9537 28.0715 69.9736Z" fill="white"/>
<path d="M40.2697 73.6225C40.7668 71.4943 42.3442 69.3648 42.3442 69.3648L35.265 69.3605C31.2953 66.7974 26.4741 65.4375 21.1333 65.4375C15.5891 65.4375 10.5829 66.8299 6.63583 69.4114L0 69.417C0 69.417 1.55905 71.5226 2.06319 73.6352C0.772462 75.3905 0.00564872 77.5469 0.00564872 79.8883C0.00564872 85.7334 4.76328 90.4882 10.6111 90.4882C13.9538 90.4882 16.9349 88.9305 18.8794 86.5101L21.1375 89.8908L23.4125 86.4804C24.4364 87.7824 25.7568 88.8387 27.3045 89.5547C29.8789 90.7381 32.764 90.8553 35.4203 89.8739C40.9066 87.8446 43.7239 81.7284 41.6946 76.2492C41.3387 75.2846 40.853 74.4077 40.2697 73.6225ZM21.1319 67.2889C24.9433 67.2889 28.3834 67.978 31.4224 69.3394C30.3054 69.369 29.1771 69.5681 28.0727 69.972C25.415 70.9521 23.2953 72.9093 22.1133 75.4852C21.5753 76.6516 21.2717 77.883 21.1771 79.1286C20.7887 73.7044 16.3192 69.3987 10.8215 69.2871C13.8577 67.9921 17.3472 67.2889 21.1319 67.2889ZM17.6184 84.6248C16.096 86.8702 13.5202 88.3501 10.6083 88.3501C5.93963 88.3501 2.14087 84.5485 2.14087 79.8898C2.14087 75.2183 5.94104 71.4237 10.6083 71.4237C15.2756 71.4237 19.0743 75.2183 19.0743 79.8898C19.0743 80.175 19.0192 80.4433 18.9896 80.7187C18.8484 82.1492 18.388 83.4894 17.6184 84.6248ZM34.6789 87.8672C32.5578 88.6467 30.2574 88.5605 28.2026 87.613C26.7453 86.9379 25.552 85.8802 24.692 84.5669C24.3417 84.0359 24.0339 83.4725 23.8065 82.8553C23.5481 82.1577 23.4196 81.4389 23.3504 80.7145C23.2092 79.2458 23.4224 77.7602 24.0551 76.3833C25.0041 74.3286 26.693 72.7653 28.8141 71.9801C33.1947 70.3646 38.071 72.6114 39.6893 76.9905C41.3063 81.3697 39.0581 86.246 34.6789 87.8672Z" fill="#191825" fill-opacity="0.5"/>
<path d="M54.8521 66.9867L51.7482 68.0586C51.7482 68.0586 51.7482 71.7754 51.7482 72.1087C51.4234 72.1087 48.3081 72.1087 48.3081 72.1087V74.8243C48.3081 74.8243 51.3273 74.8243 51.655 74.8243C51.655 75.1774 51.655 83.5431 51.655 83.5431C51.655 87.6865 53.0657 89.3867 56.5355 89.3867C57.4153 89.3867 58.2555 89.278 59.0986 89.0478L59.2356 89.0139L59.1974 86.198L58.9602 86.2884C58.2781 86.5243 57.7443 86.6401 57.3319 86.6401C55.7023 86.6401 55.0979 85.7235 55.0979 83.2494C55.0979 83.2494 55.0979 75.176 55.0979 74.8286C55.4283 74.8286 59.0675 74.8286 59.0675 74.8286V72.1087C59.0675 72.1087 55.4297 72.1087 55.0979 72.1087C55.0979 71.7726 55.0979 66.9062 55.0979 66.9062L54.8521 66.9867Z" fill="#191825" fill-opacity="0.5"/>
<path d="M65.5846 74.8586C65.5846 73.9025 65.5846 72.1076 65.5846 72.1076H62.4354V89.0863H65.8783V80.5638C65.8783 76.991 67.3795 75.0224 70.0993 75.0224C70.4933 75.0224 70.876 75.0817 71.342 75.213L71.5652 75.2766L71.6781 71.9255L70.1968 71.8125C68.2014 71.8111 66.5901 72.8886 65.5846 74.8586Z" fill="#191825" fill-opacity="0.5"/>
<path d="M77.8143 72.1062H74.555V89.0863H77.9978V72.1062H77.8143ZM74.2217 67.1311C74.2217 68.2609 75.1424 69.1774 76.2693 69.1774C77.3991 69.1774 78.317 68.2609 78.317 67.1311C78.317 66.0028 77.3991 65.082 76.2693 65.082C75.1424 65.0792 74.2217 66.0028 74.2217 67.1311Z" fill="#191825" fill-opacity="0.5"/>
<path d="M90.1568 71.707C87.7943 71.707 85.8073 72.8255 84.4827 74.8604C84.4827 74.047 84.4827 72.1024 84.4827 72.1024H81.335V95.9979H84.7807C84.7807 95.9979 84.7807 87.6534 84.7807 86.7355C86.0234 88.4258 87.8056 89.355 90.0241 89.355C94.3764 89.355 97.1881 85.7836 97.1881 80.2691C97.1881 75.1485 94.3609 71.707 90.1568 71.707ZM89.1952 86.5702C86.4711 86.5702 84.7793 84.2415 84.7793 80.5007C84.7793 76.8897 86.5643 74.5568 89.3265 74.5568C91.9884 74.5568 93.58 76.7683 93.58 80.4654C93.5814 84.2288 91.8995 86.5702 89.1952 86.5702Z" fill="#191825" fill-opacity="0.5"/>
<path d="M107.251 71.7109C105.145 71.7109 103.301 72.1092 101.609 72.9226L101.505 72.9734L101.541 75.9122L101.813 75.7597C103.43 74.8559 104.96 74.3941 106.354 74.3941C108.848 74.3941 110.28 75.8232 110.28 78.3214C110.28 78.3214 110.28 78.3934 110.28 78.4668C109.976 78.4668 108.31 78.4668 108.31 78.4668C102.642 78.4668 99.5234 80.5201 99.5234 84.2426C99.5234 87.2322 101.774 89.3222 104.997 89.3222C107.368 89.3222 109.203 88.3902 110.51 86.6363C110.51 87.3184 110.51 89.0878 110.51 89.0878H113.621V78.8128C113.62 74.1032 111.478 71.7109 107.251 71.7109ZM110.274 81.921C110.274 84.8456 108.515 86.7379 105.792 86.7379C104.124 86.7379 102.961 85.6421 102.961 84.0746C102.961 82.0142 104.931 80.883 108.506 80.883C108.506 80.883 109.979 80.883 110.277 80.883C110.274 81.1471 110.274 81.921 110.274 81.921Z" fill="#191825" fill-opacity="0.5"/>
<path d="M128.243 64C128.243 64 128.243 73.4658 128.243 74.412C126.973 72.6468 125.206 71.7119 122.937 71.7119C118.725 71.7119 115.895 75.1802 115.895 80.3347C115.895 85.6445 118.765 89.3529 122.868 89.3529C125.298 89.3529 127.193 88.2768 128.507 86.1853C128.507 87.0312 128.507 89.0888 128.507 89.0888H131.69V64H128.243ZM123.76 86.5031C121.137 86.5031 119.507 84.2154 119.507 80.5324C119.507 76.8452 121.151 74.4614 123.698 74.4614C126.542 74.4614 128.24 76.7294 128.24 80.5324C128.243 84.1659 126.489 86.5031 123.76 86.5031Z" fill="#191825" fill-opacity="0.5"/>
<path d="M147.075 72.1055L142.193 81.9102L137.679 72.1055H133.8L142.121 89.0855L150.667 72.1055H147.075Z" fill="#191825" fill-opacity="0.5"/>
<path d="M155.679 72.1062H152.419V89.0863H155.866V72.1062H155.679ZM152.089 67.1311C152.089 68.2609 153.009 69.1774 154.137 69.1774C155.271 69.1774 156.185 68.2609 156.185 67.1311C156.185 66.0028 155.268 65.082 154.137 65.082C153.01 65.0792 152.089 66.0028 152.089 67.1311Z" fill="#191825" fill-opacity="0.5"/>
<path d="M159.902 76.4613C159.902 78.8493 161.543 80.1075 164.574 81.5903C166.484 82.5294 167.483 83.083 167.483 84.4062C167.483 85.7633 166.257 86.6403 164.353 86.6403C163.008 86.6403 161.514 86.2618 160.034 85.5346L159.782 85.4103L159.671 88.4041L159.785 88.4465C161.2 89.0099 162.687 89.2853 164.224 89.2853C168.435 89.2853 171.153 87.2786 171.153 84.1732C171.153 81.5847 169.432 80.2699 166.448 78.8775C164.263 77.8509 163.347 77.2535 163.347 76.1647C163.347 75.1338 164.366 74.4616 165.942 74.4616C167.366 74.4616 168.755 74.778 170.07 75.405L170.318 75.5194L170.468 72.5905L170.331 72.551C168.905 72.1273 167.497 71.9141 166.141 71.9141C162.41 71.9084 159.902 73.7386 159.902 76.4613Z" fill="#191825" fill-opacity="0.5"/>
<path d="M181.896 71.7109C176.722 71.7109 173.509 75.1185 173.509 80.5978C173.509 86.0799 176.725 89.4818 181.896 89.4818C187.095 89.4818 190.321 86.0785 190.321 80.5978C190.321 75.1199 187.092 71.7109 181.896 71.7109ZM181.926 86.673C179.066 86.673 177.146 84.2186 177.146 80.5653C177.146 76.8922 179.066 74.4294 181.926 74.4294C184.832 74.4294 186.709 76.84 186.709 80.5653C186.709 84.2765 184.835 86.673 181.926 86.673Z" fill="#191825" fill-opacity="0.5"/>
<path d="M196.673 74.8586C196.673 73.9025 196.673 72.1076 196.673 72.1076H193.524V89.0863H196.967V80.5638C196.967 76.991 198.459 75.0224 201.183 75.0224C201.575 75.0224 201.955 75.0817 202.412 75.213L202.645 75.2766L202.752 71.9255L201.277 71.8125C199.29 71.8111 197.681 72.8886 196.673 74.8586Z" fill="#191825" fill-opacity="0.5"/>
<path d="M210.965 71.3564C211.53 71.9283 211.827 72.6881 211.827 73.5057C211.827 74.3601 211.508 75.1255 210.92 75.689C210.307 76.2708 209.548 76.5829 208.754 76.5829C207.925 76.5829 207.162 76.2567 206.569 75.6438C206.003 75.0563 205.682 74.305 205.682 73.5029C205.682 72.6853 206.009 71.893 206.619 71.2914C207.191 70.7308 207.926 70.4258 208.754 70.4258C209.603 70.4272 210.375 70.7492 210.965 71.3564ZM207 71.6939C206.503 72.191 206.237 72.8307 206.237 73.5057C206.237 74.1638 206.483 74.7696 206.958 75.2526C207.433 75.7497 208.065 76.018 208.741 76.018C209.399 76.018 210.032 75.7652 210.52 75.2907C211.001 74.829 211.265 74.1963 211.265 73.5043C211.265 72.8279 211.019 72.2136 210.553 71.7433C210.064 71.2463 209.444 70.985 208.754 70.985C208.073 70.985 207.476 71.2279 207 71.6939ZM208.81 71.7518C209.773 71.7518 210.268 72.1006 210.268 72.7319C210.268 73.1668 210.009 73.5043 209.55 73.6427L210.307 75.1241H209.282L208.651 73.7868H208.384V75.1241H207.455V71.7504L208.81 71.7518ZM208.377 73.2374H208.7C209.114 73.2374 209.313 73.092 209.313 72.8025C209.313 72.472 209.104 72.3365 208.651 72.3365H208.377V73.2374Z" fill="#191825" fill-opacity="0.5"/>
<path d="M364.771 89.0383H361.256C361.233 89.0383 361.233 89.0383 361.222 89.0271L358.197 85.3342L355.171 89.0271C355.16 89.0383 355.149 89.0383 355.138 89.0383H352.324C352.301 89.0383 352.29 89.0271 352.279 89.016C352.279 89.0049 352.279 88.9827 352.29 88.9715L356.751 83.4988L352.346 78.0818C352.335 78.0595 352.335 78.0484 352.335 78.0262C352.346 78.015 352.357 78.0039 352.368 78.0039H355.883C355.894 78.0039 355.905 78.015 355.916 78.0262L358.575 81.3187L361.278 78.0262C361.289 78.015 361.3 78.0039 361.311 78.0039H364.17C364.181 78.0039 364.203 78.015 364.214 78.0262C364.226 78.0484 364.214 78.0595 364.203 78.0818L360.032 83.0984L364.815 88.9715C364.826 88.9827 364.826 89.0049 364.826 89.016C364.804 89.0383 364.793 89.0383 364.771 89.0383Z" fill="#191825" fill-opacity="0.5"/>
<path d="M383.78 79.9384C382.223 79.9384 381.167 80.8839 380.855 82.519H386.15V82.4078C386.15 81.1063 385.182 79.9384 383.78 79.9384ZM388.875 84.2098C388.864 84.2209 388.853 84.232 388.842 84.232H380.799C380.966 86.1007 382.179 87.1686 384.148 87.1686C385.36 87.1686 386.65 86.757 388.463 85.7893C388.497 85.767 388.53 85.8004 388.53 85.8338V88.3032C388.53 88.3254 388.519 88.3365 388.508 88.3365C386.817 89.0484 385.115 89.5378 383.78 89.5378C380.321 89.5378 377.807 87.0128 377.807 83.5424C377.807 80.0719 380.321 77.5469 383.78 77.5469C386.94 77.5469 388.964 79.6714 388.964 82.5969C388.964 83.0752 388.886 84.1764 388.875 84.2098Z" fill="#191825" fill-opacity="0.5"/>
<path d="M405.204 75.7112C404.214 75.7112 403.413 74.9215 403.413 73.9537C403.413 72.9526 404.214 72.1406 405.204 72.1406C406.194 72.1406 406.995 72.9526 406.995 73.9537C406.995 74.9215 406.194 75.7112 405.204 75.7112ZM403.758 89.037C403.725 89.037 403.713 89.0259 403.713 88.9925V78.036C403.713 78.0138 403.725 77.9915 403.747 77.9915H406.65C406.672 77.9915 406.683 78.0138 406.683 78.036V88.9925C406.683 89.0259 406.661 89.037 406.639 89.037H403.758Z" fill="#191825" fill-opacity="0.5"/>
<path d="M370.087 87.391C369.565 87.391 369.031 87.3132 368.408 87.1574L368.419 80.1275C369.142 79.8939 369.765 79.7938 370.388 79.7938C372.401 79.7938 373.747 81.2732 373.747 83.4867C373.747 85.856 372.312 87.391 370.087 87.391ZM370.877 77.5469C370.054 77.5469 369.231 77.6915 368.363 77.9918H365.471C365.449 77.9918 365.427 78.0141 365.427 78.0363V96.0005C366.294 95.8782 367.362 95.5667 368.408 94.8326V89.371C369.12 89.4711 369.709 89.5378 370.277 89.5378C374.236 89.5378 376.795 87.1686 376.795 83.4979C376.795 79.994 374.359 77.5469 370.877 77.5469Z" fill="#191825" fill-opacity="0.5"/>
<path d="M398.474 86.4771C397.573 86.9554 396.761 87.1779 396.005 87.1779C394.214 87.1779 393.135 85.9098 393.135 83.7852C393.135 81.3381 394.503 79.7475 396.628 79.7475C397.217 79.7475 397.785 79.8921 398.474 80.2035V86.4771ZM398.474 72.1947V77.9232C397.629 77.6785 396.884 77.5673 396.127 77.5673C392.679 77.5673 390.087 80.159 390.087 83.6073C390.087 87.0332 392.379 89.5249 395.538 89.5249C396.628 89.5249 397.651 89.2468 398.852 88.635V89.625C399.642 89.4693 400.554 89.1578 401.455 88.5127V71.0156C400.577 71.138 399.531 71.4383 398.474 72.1947Z" fill="#191825" fill-opacity="0.5"/>
<path d="M416.75 86.4579C415.871 86.9584 415.126 87.2031 414.459 87.2031C412.534 87.2031 411.389 85.9351 411.389 83.8105C411.389 81.3967 412.746 79.7727 414.759 79.7727C415.293 79.7727 415.949 79.9841 416.75 80.4068V86.4579ZM419.731 77.8595C419.731 77.7928 419.675 77.7372 419.609 77.7372H417.262C417.195 77.7372 417.128 77.7928 417.128 77.8595V78.26H417.073C415.994 77.7817 415.059 77.5703 414.158 77.5703C410.91 77.5703 408.363 80.2622 408.363 83.7104C408.363 87.192 410.643 89.5279 414.036 89.5279C414.937 89.5279 416.105 89.4612 417.195 88.2154V89.628C417.962 89.4612 418.875 89.1386 419.731 88.5157V77.8595Z" fill="#191825" fill-opacity="0.5"/>
<path d="M344.292 86.3002H351.578C351.467 87.1122 351.189 88.0688 350.566 89.0365H342.991C342.068 89.0365 341.3 88.3135 341.211 87.4125C341.211 87.4014 341.2 87.3902 341.2 87.368V72.9966C341.2 72.9855 341.211 72.9744 341.211 72.9633C341.3 72.0511 342.068 71.3281 342.991 71.3281H351.567C351.456 72.1401 351.178 73.119 350.544 74.0867H344.292V78.0021H350.488C350.51 78.0021 350.533 78.0244 350.533 78.0466V80.7607C350.533 80.783 350.51 80.8052 350.488 80.8052H344.292V86.3002Z" fill="#191825" fill-opacity="0.5"/>
<path d="M335.172 89.2685C334.448 89.2685 334.004 88.7012 334.004 88.0115C334.004 87.2774 334.515 86.7546 335.172 86.7546C335.817 86.7546 336.328 87.2662 336.328 88.0115C336.328 88.7568 335.817 89.2685 335.172 89.2685ZM335.172 86.6211C334.437 86.6211 333.803 87.1773 333.803 88.0115C333.803 88.8013 334.371 89.4019 335.172 89.4019C335.895 89.4019 336.529 88.8458 336.529 88.0115C336.529 87.1773 335.906 86.6211 335.172 86.6211Z" fill="#191825" fill-opacity="0.5"/>
<path d="M334.849 87.9027V87.391H335.193C335.371 87.391 335.572 87.4133 335.572 87.6246C335.572 87.8805 335.383 87.8916 335.171 87.8916C335.16 87.9027 334.849 87.9027 334.849 87.9027ZM335.816 87.658C335.816 87.3243 335.616 87.1797 335.216 87.1797H334.593V88.8259H334.86V88.1252H335.116L335.538 88.8259H335.85L335.394 88.1029C335.638 88.0807 335.816 87.9583 335.816 87.658Z" fill="#191825" fill-opacity="0.5"/>
<path d="M422.134 79.8159C421.411 79.8159 420.966 79.2486 420.966 78.559C420.966 77.8248 421.477 77.302 422.134 77.302C422.779 77.302 423.29 77.8137 423.29 78.559C423.29 79.3042 422.779 79.8159 422.134 79.8159ZM422.134 77.1797C421.399 77.1797 420.765 77.7359 420.765 78.5701C420.765 79.3599 421.333 79.9605 422.134 79.9605C422.857 79.9605 423.491 79.4044 423.491 78.5701C423.491 77.7247 422.857 77.1797 422.134 77.1797Z" fill="#191825" fill-opacity="0.5"/>
<path d="M421.8 78.4463V77.9457H422.145C422.323 77.9457 422.523 77.968 422.523 78.1793C422.523 78.4351 422.334 78.4463 422.123 78.4463H421.8ZM422.779 78.2127C422.779 77.879 422.579 77.7344 422.178 77.7344H421.555V79.3806H421.822V78.6799H422.078L422.501 79.3806H422.812L422.356 78.6576C422.59 78.6354 422.779 78.513 422.779 78.2127Z" fill="#191825" fill-opacity="0.5"/>
<path d="M325.772 74.0759L325.249 72.5853L320.755 66.5899L321.556 66.3896L329.287 73.0748L333.836 71.7733C334.37 71.6399 334.982 71.6065 335.438 71.6065C334.014 68.5253 331.389 65.9892 327.941 64.7656C321.122 62.3296 313.614 65.9002 311.189 72.7299C310.433 74.8434 310.266 77.0236 310.578 79.0925L321.467 75.3106L325.772 74.0759Z" fill="#191825" fill-opacity="0.5"/>
<path d="M335.928 72.7852C335.527 73.041 334.938 73.3858 334.359 73.5749L329.799 74.8763L326.762 84.6426L325.972 84.8985L326.617 77.4458L326.262 75.8997L321.99 77.1233L310.689 79.7595C311.59 84.0976 314.66 87.8907 319.143 89.4813C325.972 91.9173 333.469 88.3467 335.905 81.517C336.951 78.5915 336.884 75.5215 335.928 72.7852Z" fill="#191825" fill-opacity="0.5"/>
<path d="M326.25 75.8894L326.606 77.4355L325.961 84.8882L326.751 84.6323L329.788 74.866L334.348 73.5646C334.927 73.3755 335.516 73.0418 335.917 72.7748C335.772 72.3744 335.616 71.9851 335.438 71.5958C334.971 71.5958 334.37 71.618 333.837 71.7626L329.287 73.064L321.556 66.3789L320.756 66.5791L325.238 72.5746L325.761 74.0651L321.456 75.2998L310.567 79.0818C310.6 79.3042 310.644 79.5378 310.689 79.7603L321.979 77.1018L326.25 75.8894Z" fill="white"/>
<mask id="mask0_1156_789" style="mask-type:luminance" maskUnits="userSpaceOnUse" x="522" y="64" width="189" height="32">
<path d="M710.696 64H522.093V96H710.696V64Z" fill="white"/>
</mask>
<g mask="url(#mask0_1156_789)">
<mask id="mask1_1156_789" style="mask-type:luminance" maskUnits="userSpaceOnUse" x="522" y="64" width="189" height="32">
<path d="M710.696 64H522.093V96H710.696V64Z" fill="white"/>
</mask>
<g mask="url(#mask1_1156_789)">
<path d="M596.05 67.5024C596.05 65.9221 597.332 64.6328 598.919 64.6328C600.5 64.6328 601.789 65.9147 601.789 67.5024C601.734 69.0827 600.4 70.3167 598.816 70.2615C597.313 70.2062 596.109 69.0016 596.05 67.5024Z" fill="#191825" fill-opacity="0.5"/>
</g>
<mask id="mask2_1156_789" style="mask-type:luminance" maskUnits="userSpaceOnUse" x="522" y="64" width="189" height="32">
<path d="M710.696 64H522.093V96H710.696V64Z" fill="white"/>
</mask>
<g mask="url(#mask2_1156_789)">
<path d="M641.274 86.6191C641.274 85.0278 642.556 83.7422 644.133 83.7422C645.72 83.7422 647.006 85.0278 647.006 86.6191C647.006 88.2068 645.72 89.4924 644.133 89.4924C642.556 89.4924 641.274 88.2031 641.274 86.6191Z" fill="#191825" fill-opacity="0.5"/>
</g>
<mask id="mask3_1156_789" style="mask-type:luminance" maskUnits="userSpaceOnUse" x="522" y="64" width="189" height="32">
<path d="M710.696 64H522.093V96H710.696V64Z" fill="white"/>
</mask>
<g mask="url(#mask3_1156_789)">
<path d="M549.021 85.3775C546.556 85.3775 544.836 83.4178 544.836 80.6145C544.836 77.815 546.553 75.8553 549.021 75.8553C551.5 75.8553 553.238 77.815 553.238 80.6145C553.235 83.462 551.54 85.3775 549.021 85.3775ZM549.021 71.6706C543.801 71.6706 540.01 75.4316 540.01 80.6145C540.01 85.7975 543.805 89.5585 549.021 89.5585C554.266 89.5585 558.068 85.7975 558.068 80.6182C558.068 75.4316 554.259 71.6706 549.021 71.6706ZM590.502 81.064C590.322 80.714 590.09 80.3862 589.821 80.0988L589.662 79.9331L589.828 79.7747C590.068 79.5205 590.315 79.2221 590.547 78.8759L595.155 72.0242H589.559L586.097 77.384C585.901 77.675 585.507 77.8113 584.914 77.8113H584.122V67.6775C584.122 65.6515 582.862 65.3789 581.496 65.3789H579.16L579.164 89.2933H584.119V82.1249H584.583C585.146 82.1249 585.529 82.1912 585.71 82.4969L588.443 87.6577C589.209 89.0575 589.968 89.2969 591.398 89.2969H595.206L592.374 84.6224L590.502 81.064ZM614.571 71.6338C612.048 71.6338 610.438 72.7536 609.54 73.704L609.241 74.0097L609.134 73.5972C608.869 72.5805 607.978 72.0279 606.633 72.0279H604.412L604.427 89.2969H609.352V81.3402C609.352 80.5593 609.451 79.8889 609.657 79.27C610.206 77.4061 611.735 76.242 613.643 76.242C615.179 76.242 615.783 77.0524 615.783 79.1521V86.6742C615.783 88.4607 616.609 89.3006 618.402 89.3006H620.742L620.731 78.3159C620.731 73.9361 618.598 71.6338 614.571 71.6338ZM598.982 72.0242H596.647L596.661 85.3775V89.2933H599.152L599.24 89.2969L600.404 89.2933H601.557V89.2896H601.568L601.579 74.6507C601.572 72.8825 600.728 72.0242 598.982 72.0242ZM568.356 85.3775C565.892 85.3775 564.172 83.4178 564.172 80.6145C564.172 77.815 565.892 75.8553 568.356 75.8553C570.832 75.8553 572.574 77.815 572.574 80.6145C572.57 83.462 570.876 85.3775 568.356 85.3775ZM568.356 71.6706C563.133 71.6706 559.339 75.4316 559.339 80.6145C559.339 85.7975 563.133 89.5585 568.356 89.5585C573.591 89.5585 577.403 85.7975 577.403 80.6182C577.403 75.4316 573.594 71.6706 568.356 71.6706Z" fill="#191825" fill-opacity="0.5"/>
</g>
</g>
<mask id="mask4_1156_789" style="mask-type:luminance" maskUnits="userSpaceOnUse" x="522" y="64" width="189" height="32">
<path d="M710.696 64H522.093V96H710.696V64Z" fill="white"/>
</mask>
<g mask="url(#mask4_1156_789)">
<mask id="mask5_1156_789" style="mask-type:luminance" maskUnits="userSpaceOnUse" x="522" y="64" width="189" height="32">
<path d="M710.656 64.6289H522.093V95.9585H710.656V64.6289Z" fill="white"/>
</mask>
<g mask="url(#mask5_1156_789)">
<mask id="mask6_1156_789" style="mask-type:luminance" maskUnits="userSpaceOnUse" x="522" y="64" width="189" height="32">
<path d="M710.696 64H522.093V96H710.696V64Z" fill="white"/>
</mask>
<g mask="url(#mask6_1156_789)">
<path d="M673.885 85.3749C671.421 85.3749 669.701 83.4152 669.701 80.6119C669.701 77.8123 671.421 75.8526 673.885 75.8526C676.365 75.8526 678.103 77.8123 678.103 80.6119C678.103 83.4594 676.405 85.3749 673.885 85.3749ZM673.885 71.668C668.662 71.668 664.868 75.429 664.868 80.6119C664.868 85.7948 668.655 89.5558 673.885 89.5558C679.124 89.5558 682.932 85.7948 682.932 80.6156C682.932 75.429 679.12 71.668 673.885 71.668Z" fill="#191825" fill-opacity="0.5"/>
</g>
<mask id="mask7_1156_789" style="mask-type:luminance" maskUnits="userSpaceOnUse" x="522" y="64" width="189" height="32">
<path d="M710.696 64H522.093V96H710.696V64Z" fill="white"/>
</mask>
<g mask="url(#mask7_1156_789)">
<path d="M631.107 84.6118C628.414 84.6118 627.46 82.2653 627.46 80.0662C627.46 79.0937 627.707 75.9368 630.857 75.9368C632.418 75.9368 634.5 76.3862 634.5 80.2246C634.496 83.853 632.651 84.6118 631.107 84.6118ZM637.053 71.9805C636.117 71.9805 635.399 72.3526 635.038 73.0341L634.905 73.2993L634.677 73.0967C633.881 72.4078 632.455 71.5938 630.146 71.5938C625.541 71.5938 622.443 75.049 622.443 80.1988C622.443 85.3412 625.652 88.9328 630.241 88.9328C631.807 88.9328 633.048 88.5644 634.028 87.8203L634.404 87.5367V88.0155C634.404 90.3252 632.912 91.5961 630.208 91.5961C628.89 91.5961 627.696 91.2756 626.897 90.9846C625.854 90.6678 625.239 90.933 624.819 91.9755L624.425 92.9406L623.872 94.3514L624.215 94.5319C625.946 95.4529 628.201 95.998 630.234 95.998C634.426 95.998 639.322 93.8541 639.322 87.8129L639.336 71.9695H637.053" fill="#191825" fill-opacity="0.5"/>
</g>
</g>
</g>
<mask id="mask8_1156_789" style="mask-type:luminance" maskUnits="userSpaceOnUse" x="522" y="64" width="189" height="32">
<path d="M710.696 64H522.093V96H710.696V64Z" fill="white"/>
</mask>
<g mask="url(#mask8_1156_789)">
<mask id="mask9_1156_789" style="mask-type:luminance" maskUnits="userSpaceOnUse" x="522" y="64" width="189" height="32">
<path d="M710.696 64H522.093V96H710.696V64Z" fill="white"/>
</mask>
<g mask="url(#mask9_1156_789)">
<path d="M530.687 85.1754L526.675 85.1717V80.3829C526.675 79.3552 527.073 78.8284 527.946 78.7032H530.679C532.628 78.7032 533.888 79.9335 533.895 81.9227C533.895 83.9671 532.665 85.1754 530.687 85.1754ZM526.675 72.2531V70.9933C526.675 69.8882 527.139 69.3651 528.167 69.2988H530.219C531.976 69.2988 533.03 70.3523 533.03 72.1131C533.03 73.4576 532.308 75.0232 530.282 75.0232H526.675V72.2531ZM535.8 77.0345L535.078 76.6256L535.708 76.0841C536.448 75.4542 537.675 74.0286 537.675 71.5716C537.675 67.8106 534.761 65.3867 530.248 65.3867H524.517C523.179 65.4346 522.108 66.5287 522.093 67.8658V89.2016H530.355C535.372 89.2016 538.607 86.472 538.607 82.2432C538.607 79.974 537.557 78.0254 535.8 77.0345Z" fill="#191825" fill-opacity="0.5"/>
</g>
<mask id="mask10_1156_789" style="mask-type:luminance" maskUnits="userSpaceOnUse" x="522" y="64" width="189" height="32">
<path d="M710.696 64H522.093V96H710.696V64Z" fill="white"/>
</mask>
<g mask="url(#mask10_1156_789)">
<path d="M704.924 71.6873C702.869 71.691 700.92 72.6377 699.638 74.2511L699.281 74.7005L699.001 74.1959C698.087 72.5308 696.522 71.691 694.334 71.691C692.046 71.691 690.51 72.9655 689.795 73.728L689.331 74.2327L689.151 73.5659C688.893 72.6082 688.038 72.0814 686.749 72.0814H684.679L684.657 89.2842H689.357V81.6884C689.357 81.0217 689.438 80.366 689.604 79.6771C690.053 77.8427 691.287 75.8682 693.361 76.0635C694.636 76.1887 695.262 77.1759 695.262 79.0804V89.2805H699.995V81.6847C699.995 80.8522 700.073 80.226 700.261 79.6072C700.636 77.8537 701.929 76.0561 703.93 76.0561C705.377 76.0561 705.915 76.8739 705.915 79.0804V86.7645C705.915 88.4995 706.689 89.2805 708.427 89.2805H710.638L710.641 78.2995C710.656 73.9085 708.722 71.6873 704.924 71.6873ZM662.146 83.3092C662.131 83.324 660.109 85.4605 657.445 85.4605C655.018 85.4605 652.568 83.9723 652.568 80.6496C652.568 77.7801 654.469 75.7725 657.191 75.7725C658.075 75.7725 659.077 76.0893 659.236 76.6197L659.258 76.7081C659.464 77.4633 660.153 77.9827 660.93 77.979L663.505 77.9827V75.7283C663.505 72.7555 659.729 71.6836 657.184 71.6836C651.747 71.6836 647.805 75.4667 647.805 80.6791C647.805 85.8878 651.706 89.6709 657.084 89.6709C661.752 89.6709 664.286 86.6024 664.312 86.5767L664.444 86.4109L662.404 83.0256L662.146 83.3092Z" fill="#191825" fill-opacity="0.5"/>
</g>
</g>
<path d="M863.337 72.0405C863.337 73.1937 862.408 74.1224 861.255 74.1224C860.102 74.1224 859.173 73.1937 859.173 72.0405C859.173 70.8872 860.07 69.9586 861.255 69.9586C862.441 69.9906 863.337 70.9195 863.337 72.0405ZM854.752 76.2369V76.7495C854.752 76.7495 853.76 75.4676 851.646 75.4676C848.155 75.4676 845.431 78.1264 845.431 81.8099C845.431 85.4617 848.123 88.1522 851.646 88.1522C853.792 88.1522 854.752 86.8389 854.752 86.8389V87.3832C854.752 87.6395 854.945 87.8312 855.201 87.8312H857.795V75.787H855.201C854.945 75.7879 854.752 76.0126 854.752 76.2369ZM854.752 83.9561C854.273 84.661 853.311 85.2697 852.158 85.2697C850.108 85.2697 848.539 83.9884 848.539 81.8099C848.539 79.6317 850.108 78.3504 852.158 78.3504C853.28 78.3504 854.305 78.9911 854.752 79.6637V83.9561ZM859.718 75.7879H862.792V87.8322H859.718V75.7879ZM905.651 75.4673C903.537 75.4673 902.544 76.7492 902.544 76.7492V69.9906H899.469V87.8322H902.064C902.32 87.8322 902.512 87.6078 902.512 87.3835V86.8392C902.512 86.8392 903.505 88.1525 905.618 88.1525C909.11 88.1525 911.833 85.4626 911.833 81.8108C911.833 78.1591 909.11 75.4673 905.651 75.4673ZM905.138 85.2373C903.953 85.2373 903.024 84.6293 902.544 83.9241V79.6317C903.024 78.9911 904.049 78.3184 905.138 78.3184C907.188 78.3184 908.758 79.5997 908.758 81.7779C908.758 83.9561 907.189 85.2373 905.138 85.2373ZM897.867 80.6893V87.8642H894.792V81.0413C894.792 79.0557 894.151 78.2544 892.423 78.2544C891.494 78.2544 890.533 78.7351 889.923 79.44V87.8325H886.849V75.7882H889.283C889.539 75.7882 889.731 76.0126 889.731 76.2369V76.7495C890.628 75.8202 891.813 75.4676 892.998 75.4676C894.344 75.4676 895.465 75.8526 896.362 76.6212C897.451 77.5181 897.867 78.6711 897.867 80.6893ZM879.385 75.4673C877.271 75.4673 876.278 76.7492 876.278 76.7492V69.9906H873.203V87.8322H875.797C876.054 87.8322 876.246 87.6078 876.246 87.3835V86.8392C876.246 86.8392 877.239 88.1525 879.353 88.1525C882.844 88.1525 885.567 85.4626 885.567 81.8108C885.599 78.1588 882.876 75.4673 879.385 75.4673ZM878.872 85.2373C877.687 85.2373 876.758 84.6293 876.278 83.9241V79.6317C876.758 78.9911 877.783 78.3184 878.872 78.3184C880.923 78.3184 882.492 79.5997 882.492 81.7779C882.492 83.9561 880.923 85.2373 878.872 85.2373ZM870.544 75.4673C871.473 75.4673 871.953 75.6279 871.953 75.6279V78.4784C871.953 78.4784 869.391 77.6135 867.79 79.4397V87.8638H864.714V75.7879H867.309C867.565 75.7879 867.757 76.0122 867.757 76.2366V76.7492C868.334 76.0762 869.584 75.4673 870.544 75.4673ZM838.609 86.7429C838.449 86.3586 838.289 85.9423 838.129 85.5897C837.872 85.0133 837.616 84.4684 837.392 83.9561L837.36 83.9241C835.15 79.1191 832.78 74.2507 830.281 69.4463L830.185 69.2537C829.922 68.7553 829.666 68.2534 829.417 67.7481C829.096 67.1711 828.776 66.5631 828.263 65.9862C827.238 64.7049 825.765 64 824.196 64C822.594 64 821.153 64.7049 820.096 65.9219C819.615 66.4982 819.263 67.1068 818.943 67.6838C818.693 68.1887 818.437 68.6906 818.174 69.1893L818.078 69.382C815.612 74.1864 813.209 79.0551 810.999 83.8598L810.967 83.9234C810.743 84.4367 810.486 84.981 810.23 85.557C810.07 85.9096 809.91 86.294 809.75 86.7103C809.333 87.8952 809.205 89.0165 809.366 90.17C809.718 92.5726 811.319 94.5898 813.53 95.4874C814.363 95.84 815.228 96 816.124 96C816.38 96 816.7 95.968 816.957 95.9357C818.014 95.8077 819.103 95.4557 820.161 94.8471C821.474 94.1101 822.723 93.0535 824.132 91.5159C825.542 93.0535 826.823 94.1101 828.104 94.8471C829.162 95.4557 830.25 95.8077 831.307 95.9357C831.564 95.9683 831.884 96 832.14 96C833.037 96 833.934 95.84 834.735 95.4874C836.977 94.5898 838.546 92.5406 838.899 90.17C839.153 89.0491 839.025 87.9285 838.609 86.7429ZM824.163 88.4085C822.433 86.2303 821.312 84.1804 820.928 82.4512C820.768 81.7142 820.736 81.0736 820.832 80.497C820.896 79.9843 821.089 79.5357 821.345 79.1514C821.953 78.2871 822.978 77.7421 824.164 77.7421C825.349 77.7421 826.406 78.2548 826.983 79.1514C827.239 79.5357 827.431 79.9846 827.496 80.497C827.591 81.0739 827.559 81.7462 827.399 82.4512C827.014 84.1484 825.893 86.1986 824.163 88.4085ZM836.943 89.914C836.719 91.5796 835.598 93.0215 834.029 93.6621C833.26 93.9821 832.427 94.0784 831.595 93.9821C830.794 93.8858 829.993 93.6295 829.16 93.1495C828.007 92.5082 826.854 91.5159 825.509 90.042C827.622 87.4478 828.904 85.077 829.384 82.9635C829.609 81.9702 829.641 81.0736 829.544 80.2403C829.417 79.4397 829.128 78.7027 828.68 78.0621C827.686 76.6202 826.02 75.7879 824.163 75.7879C822.306 75.7879 820.64 76.6529 819.647 78.0621C819.199 78.7027 818.91 79.4397 818.782 80.2403C818.654 81.0736 818.686 82.0022 818.942 82.9635C819.422 85.077 820.736 87.4795 822.817 90.074C821.504 91.5476 820.319 92.5409 819.166 93.1815C818.333 93.6621 817.532 93.9184 816.732 94.0141C815.867 94.1104 815.034 93.9821 814.297 93.6941C812.728 93.0535 811.607 91.6116 811.383 89.946C811.287 89.1454 811.35 88.3448 811.671 87.4478C811.767 87.1272 811.927 86.8072 812.087 86.4229C812.312 85.9103 812.567 85.3653 812.824 84.821L812.856 84.7573C815.066 79.9843 817.436 75.1156 819.903 70.3752L819.999 70.1826C820.256 69.7026 820.512 69.19 820.768 68.7093C821.024 68.1967 821.312 67.7161 821.665 67.2995C822.337 66.5315 823.234 66.1145 824.227 66.1145C825.221 66.1145 826.117 66.5315 826.79 67.2995C827.143 67.717 827.43 68.1977 827.687 68.7093C827.943 69.19 828.2 69.7026 828.455 70.1826L828.552 70.3752C830.981 75.1353 833.319 79.9409 835.567 84.7893V84.8213C835.823 85.3346 836.047 85.9106 836.304 86.4239C836.464 86.8075 836.624 87.1275 836.72 87.4482C836.976 88.2802 837.072 89.0814 836.943 89.914Z" fill="#191825" fill-opacity="0.5"/>
<path d="M1110.24 95.14L1123.55 65.0316C1123.76 64.5748 1123.51 64.1818 1123 64.1818H1113.68C1113.4 64.1973 1113.14 64.285 1112.91 64.4359C1112.68 64.5868 1112.5 64.7956 1112.38 65.0408L1099.24 95.14C1099.05 95.606 1099.29 95.9898 1099.8 95.9898H1108.94C1109.46 95.9898 1110.04 95.606 1110.24 95.14ZM1157.95 87.035L1178.6 64.191H1154.45L1148.98 72.9905H1158.46L1137.47 95.999H1163.03L1172.55 87.035H1157.95ZM1069.57 64.1818H1053.58C1053.1 64.2093 1052.65 64.3615 1052.25 64.6231C1051.85 64.8846 1051.53 65.2462 1051.32 65.6713L1038.74 94.5095C1038.37 95.3319 1038.82 95.999 1039.72 95.999H1047.64C1048.53 95.999 1049.56 95.3319 1049.91 94.5187L1053.5 86.3405H1057.22C1058.38 86.2674 1058.87 86.6969 1058.23 88.0401L1055.47 94.5095C1055.12 95.3319 1055.56 95.999 1056.46 95.999H1064.38C1064.86 95.974 1065.32 95.8229 1065.71 95.5612C1066.11 95.2994 1066.43 94.9365 1066.65 94.5095L1070.25 86.1852C1071.38 83.4804 1069.74 81.3879 1067.37 81.2783C1069.47 80.5199 1071.41 78.4274 1072.27 76.5267L1074.14 72.1407C1076.39 67.0419 1074.79 64.1179 1069.57 64.191M1064.91 73.2829L1062.94 77.6232C1062.48 78.6649 1061.82 78.7472 1061.16 78.7198H1056.71L1059.69 71.9579H1063.96C1065 72.0219 1065.27 72.3965 1064.91 73.2829ZM1100.69 64.1727H1083.75C1083.41 64.1904 1083.08 64.2978 1082.8 64.4841C1082.52 64.6703 1082.29 64.9286 1082.13 65.2327L1069.17 94.9299C1068.92 95.5147 1069.22 95.9807 1069.86 95.9807H1088C1093.75 95.8985 1097.05 94.6283 1099.67 88.5427L1101.53 84.4856C1103 81.0133 1101.56 79.5056 1098.82 79.067C1101.1 78.3634 1102.82 76.2161 1103.56 74.3246L1105.08 71.1081C1106.94 66.8135 1105.39 64.1179 1100.68 64.1727M1092.38 84.0927L1091.23 86.4045C1090.65 88.0127 1089.64 88.4513 1088.23 88.4696H1082.93L1085.47 82.4845H1090.77C1092.27 82.5941 1092.85 82.9596 1092.38 84.0927ZM1095.42 73.4382L1094.62 75.2657L1094.51 75.5033C1094.37 75.8845 1094.12 76.2114 1093.78 76.4329C1093.45 76.6543 1093.04 76.758 1092.64 76.7278H1088.05L1090.15 71.8848H1094.84C1095.68 71.9397 1095.81 72.4879 1095.42 73.4382ZM1126.48 64.1818L1122.54 72.9905H1128.16C1128.54 72.9905 1128.73 73.2646 1128.57 73.621L1118.75 95.3685C1118.58 95.7157 1118.78 95.999 1119.16 95.999H1129.17C1129.55 95.999 1129.99 95.7157 1130.14 95.3593L1139.57 73.621C1139.66 73.4381 1139.8 73.2826 1139.97 73.1702C1140.14 73.0578 1140.34 72.9926 1140.54 72.9813H1146.31L1151.73 64.1818H1126.48ZM1043.46 75.019L1044.71 72.3052C1047.21 66.585 1045.56 64.127 1040.64 64.191H1028.81C1023.94 64.127 1019.88 66.8683 1017.63 71.9671L1013.98 82.2926H1010.52L1017.13 91.2109L1028.05 82.2926H1025.27L1028.48 74.8454C1029 73.621 1029.89 73.0362 1030.85 72.9905H1032.72C1033.16 73.0088 1033.46 73.1458 1033.63 73.3377L1039.42 68.4674L1043.46 75.019Z" fill="#191825" fill-opacity="0.5"/>
<path d="M1016.88 93.8327L1012.02 87.674L1011.77 88.2222C1009.51 93.3576 1009.88 95.9161 1014.75 95.9892H1026.43C1031.26 95.9161 1035.5 93.3576 1037.76 88.2222L1041.23 80.2634H1044.34L1039.04 71.3359L1028.21 80.2634H1031.18L1028.99 85.3347C1028.46 86.413 1027.66 86.9978 1026.8 87.0343H1025.24L1016.88 93.8327Z" fill="#191825" fill-opacity="0.5"/>
<path d="M1182.45 64.0001C1182.88 64.0001 1183.24 64.1555 1183.54 64.457C1183.84 64.7585 1184 65.124 1184 65.5535C1184 65.9738 1183.84 66.3393 1183.54 66.65C1183.24 66.9607 1182.88 67.1069 1182.45 67.1069C1182.24 67.1101 1182.04 67.0711 1181.85 66.9925C1181.66 66.9139 1181.49 66.7973 1181.35 66.65C1181.05 66.3393 1180.89 65.9738 1180.89 65.5535C1180.89 65.1332 1181.05 64.7494 1181.35 64.457C1181.49 64.3101 1181.66 64.1938 1181.85 64.1153C1182.04 64.0367 1182.24 63.9975 1182.45 64.0001ZM1182.45 66.8145C1182.61 66.8183 1182.78 66.7878 1182.94 66.725C1183.09 66.6621 1183.23 66.5682 1183.35 66.449C1183.47 66.3313 1183.56 66.1903 1183.63 66.0347C1183.69 65.879 1183.72 65.7122 1183.72 65.5444C1183.72 65.3781 1183.69 65.213 1183.63 65.059C1183.56 64.9051 1183.47 64.7655 1183.35 64.6489C1183.23 64.5292 1183.09 64.435 1182.94 64.3721C1182.78 64.3093 1182.61 64.2791 1182.45 64.2834C1182.28 64.2798 1182.11 64.3103 1181.96 64.3732C1181.81 64.4361 1181.67 64.5299 1181.55 64.6489C1181.3 64.8956 1181.19 65.1971 1181.19 65.5444C1181.19 65.8916 1181.3 66.2023 1181.55 66.449C1181.8 66.6957 1182.1 66.8145 1182.45 66.8145ZM1183.24 66.3759H1182.88L1182.42 65.718H1182.23V66.3759H1181.9V64.7037H1182.42C1182.6 64.7037 1182.75 64.7494 1182.86 64.8316C1182.97 64.923 1183.03 65.0418 1183.03 65.1971C1183.03 65.3982 1182.92 65.5535 1182.71 65.6358L1183.24 66.3759ZM1182.24 65.4439H1182.41C1182.62 65.4439 1182.72 65.3616 1182.72 65.2063C1182.72 65.0509 1182.63 64.9778 1182.42 64.9778H1182.24V65.4439Z" fill="#191825" fill-opacity="0.5"/>
</svg>
