<svg width="398" height="136" viewBox="0 0 398 136" fill="none" xmlns="http://www.w3.org/2000/svg">
<path d="M14.2506 44.015C15.3892 47.0997 18.8208 48.6787 21.9064 47.5428C24.9903 46.3989 26.5728 42.9709 25.4298 39.8853C24.2904 36.7961 20.8641 35.2198 17.774 36.3583C14.6867 37.5013 13.1103 40.9276 14.2506 44.015Z" fill="white"/>
<path d="M6.63005 47.8876C9.92134 47.8876 12.5895 45.2194 12.5895 41.9281C12.5895 38.6369 9.92134 35.9688 6.63005 35.9688C3.33877 35.9688 0.670654 38.6369 0.670654 41.9281C0.670654 45.2194 3.33877 47.8876 6.63005 47.8876Z" fill="white"/>
<path d="M7.64612 41.8675C7.64612 42.4747 7.15274 42.9725 6.5455 42.9725C5.93561 42.9725 5.44312 42.4756 5.44312 41.8675C5.44312 41.2611 5.93561 40.7695 6.5455 40.7695C7.15274 40.7704 7.64612 41.2611 7.64612 41.8675Z" fill="#191825" fill-opacity="0.5"/>
<path d="M20.9266 41.8675C20.9266 42.4747 20.435 42.9725 19.8277 42.9725C19.2161 42.9725 18.7253 42.4756 18.7253 41.8675C18.7253 41.2611 19.2161 40.7695 19.8277 40.7695C20.4358 40.7704 20.9266 41.2611 20.9266 41.8675Z" fill="#191825" fill-opacity="0.5"/>
<path d="M3.271 41.8638C3.271 43.6705 4.74055 45.1374 6.54725 45.1374C8.34955 45.1374 9.81822 43.6705 9.81822 41.8638C9.81822 40.0615 8.34867 38.5938 6.54725 38.5938C4.74143 38.5955 3.271 40.0624 3.271 41.8638ZM4.39986 41.8638C4.39986 40.682 5.36544 39.7208 6.54902 39.7208C7.73084 39.7208 8.69112 40.6847 8.69112 41.8638C8.69112 43.0492 7.73084 44.0121 6.54902 44.0121C5.36544 44.013 4.39986 43.0509 4.39986 41.8638Z" fill="#191825" fill-opacity="0.5"/>
<path d="M16.5532 41.8638C16.5532 43.6705 18.021 45.1374 19.8268 45.1374C21.63 45.1374 23.0969 43.6705 23.0969 41.8638C23.0969 40.0615 21.63 38.5938 19.8268 38.5938C18.0219 38.5955 16.5532 40.0624 16.5532 41.8638ZM17.6821 41.8638C17.6821 40.682 18.645 39.7208 19.8295 39.7208C21.0113 39.7208 21.9707 40.6847 21.9707 41.8638C21.9707 43.0492 21.0113 44.0121 19.8295 44.0121C18.6432 44.013 17.6821 43.0509 17.6821 41.8638Z" fill="#191825" fill-opacity="0.5"/>
<path d="M17.5447 35.7325C18.2349 35.4783 18.941 35.3548 19.6382 35.3354C17.7389 34.4854 15.5888 34.0547 13.2066 34.0547C10.843 34.0547 8.66119 34.4951 6.7627 35.3071C10.1987 35.3751 12.9922 38.0662 13.2331 41.458C13.2914 40.6796 13.482 39.9099 13.8183 39.1809C14.5588 37.5684 15.8836 36.3451 17.5447 35.7325Z" fill="white"/>
<path d="M25.1686 38.0141C25.4793 36.684 26.4651 35.353 26.4651 35.353L22.0406 35.3503C19.5596 33.7484 16.5463 32.8984 13.2083 32.8984C9.74316 32.8984 6.6143 33.7687 4.1474 35.3821L0 35.3856C0 35.3856 0.974404 36.7016 1.2895 38.022C0.482789 39.1191 0.00353045 40.4668 0.00353045 41.9302C0.00353045 45.5833 2.97705 48.5551 6.63195 48.5551C8.7211 48.5551 10.5843 47.5816 11.7996 46.0688L13.2109 48.1818L14.6328 46.0502C15.2727 46.864 16.098 47.5242 17.0653 47.9717C18.6743 48.7113 20.4775 48.7846 22.1377 48.1712C25.5666 46.9029 27.3274 43.0803 26.0591 39.6557C25.8367 39.0529 25.5331 38.5048 25.1686 38.0141ZM13.2074 34.0555C15.5896 34.0555 17.7396 34.4863 19.639 35.3371C18.9409 35.3556 18.2357 35.4801 17.5455 35.7325C15.8844 36.345 14.5596 37.5683 13.8208 39.1782C13.4846 39.9073 13.2948 40.6769 13.2357 41.4554C12.9929 38.0653 10.1995 35.3742 6.76346 35.3044C8.66108 34.4951 10.842 34.0555 13.2074 34.0555ZM11.0115 44.8905C10.06 46.2938 8.45013 47.2188 6.63019 47.2188C3.71227 47.2188 1.33804 44.8428 1.33804 41.9311C1.33804 39.0114 3.71315 36.6398 6.63019 36.6398C9.54722 36.6398 11.9214 39.0114 11.9214 41.9311C11.9214 42.1094 11.887 42.2771 11.8685 42.4492C11.7802 43.3433 11.4925 44.1809 11.0115 44.8905ZM21.6743 46.917C20.3486 47.4042 18.9109 47.3503 17.6267 46.7581C16.7158 46.3362 15.97 45.6751 15.4325 44.8543C15.2136 44.5224 15.0212 44.1703 14.8791 43.7846C14.7176 43.3486 14.6372 42.8993 14.594 42.4465C14.5057 41.5286 14.639 40.6001 15.0344 39.7396C15.6275 38.4554 16.6831 37.4783 18.0088 36.9876C20.7467 35.9779 23.7944 37.3821 24.8058 40.1191C25.8164 42.8561 24.4113 45.9037 21.6743 46.917Z" fill="#191825" fill-opacity="0.5"/>
<path d="M34.2827 33.8667L32.3427 34.5366C32.3427 34.5366 32.3427 36.8597 32.3427 37.068C32.1397 37.068 30.1926 37.068 30.1926 37.068V38.7652C30.1926 38.7652 32.0797 38.7652 32.2844 38.7652C32.2844 38.9859 32.2844 44.2145 32.2844 44.2145C32.2844 46.8041 33.1661 47.8667 35.3347 47.8667C35.8846 47.8667 36.4097 47.7988 36.9367 47.6549L37.0223 47.6337L36.9985 45.8738L36.8502 45.9303C36.4239 46.0777 36.0902 46.15 35.8325 46.15C34.814 46.15 34.4362 45.5772 34.4362 44.0309C34.4362 44.0309 34.4362 38.985 34.4362 38.7679C34.6428 38.7679 36.9173 38.7679 36.9173 38.7679V37.068C36.9173 37.068 34.6436 37.068 34.4362 37.068C34.4362 36.8579 34.4362 33.8164 34.4362 33.8164L34.2827 33.8667Z" fill="#191825" fill-opacity="0.5"/>
<path d="M40.9904 38.7866C40.9904 38.1891 40.9904 37.0673 40.9904 37.0673H39.0222V47.6789H41.174V42.3524C41.174 40.1194 42.1122 38.889 43.8122 38.889C44.0584 38.889 44.2976 38.9261 44.5889 39.0081L44.7283 39.0479L44.7989 36.9534L43.8731 36.8828C42.6259 36.8819 41.6189 37.5554 40.9904 38.7866Z" fill="#191825" fill-opacity="0.5"/>
<path d="M48.6338 37.0659H46.5967V47.6784H48.7485V37.0659H48.6338ZM46.3884 33.9565C46.3884 34.6625 46.9639 35.2354 47.6682 35.2354C48.3743 35.2354 48.948 34.6625 48.948 33.9565C48.948 33.2512 48.3743 32.6758 47.6682 32.6758C46.9639 32.674 46.3884 33.2512 46.3884 33.9565Z" fill="#191825" fill-opacity="0.5"/>
<path d="M56.3479 36.8164C54.8713 36.8164 53.6295 37.5154 52.8016 38.7873C52.8016 38.2789 52.8016 37.0635 52.8016 37.0635H50.8342V51.9982H52.9878C52.9878 51.9982 52.9878 46.7829 52.9878 46.2092C53.7645 47.2657 54.8784 47.8464 56.2649 47.8464C58.9852 47.8464 60.7424 45.6143 60.7424 42.1677C60.7424 38.9673 58.9754 36.8164 56.3479 36.8164ZM55.7468 46.1059C54.0443 46.1059 52.9869 44.6505 52.9869 42.3124C52.9869 40.0556 54.1025 38.5975 55.8289 38.5975C57.4927 38.5975 58.4874 39.9797 58.4874 42.2904C58.4882 44.6425 57.4371 46.1059 55.7468 46.1059Z" fill="#191825" fill-opacity="0.5"/>
<path d="M67.0318 36.8164C65.7158 36.8164 64.5631 37.0653 63.5058 37.5737L63.4405 37.6055L63.4634 39.4422L63.6329 39.3469C64.6435 38.782 65.6002 38.4934 66.4713 38.4934C68.03 38.4934 68.925 39.3866 68.925 40.9479C68.925 40.9479 68.925 40.9929 68.925 41.0388C68.7353 41.0388 67.6938 41.0388 67.6938 41.0388C64.151 41.0388 62.2021 42.3221 62.2021 44.6487C62.2021 46.5172 63.609 47.8235 65.6232 47.8235C67.1051 47.8235 68.2516 47.2409 69.0689 46.1447C69.0689 46.571 69.0689 47.677 69.0689 47.677H71.0133V41.2551C71.0124 38.3116 69.6735 36.8164 67.0318 36.8164ZM68.9215 43.1977C68.9215 45.0256 67.8217 46.2083 66.1201 46.2083C65.0777 46.2083 64.3504 45.5234 64.3504 44.5437C64.3504 43.2559 65.5817 42.549 67.8164 42.549C67.8164 42.549 68.737 42.549 68.9232 42.549C68.9215 42.714 68.9215 43.1977 68.9215 43.1977Z" fill="#191825" fill-opacity="0.5"/>
<path d="M80.1516 32C80.1516 32 80.1516 37.9162 80.1516 38.5075C79.3582 37.4042 78.254 36.8199 76.8357 36.8199C74.2028 36.8199 72.4341 38.9876 72.4341 42.2092C72.4341 45.5278 74.2284 47.8455 76.7924 47.8455C78.3114 47.8455 79.4959 47.173 80.3167 45.8658C80.3167 46.3945 80.3167 47.6805 80.3167 47.6805H82.3061V32H80.1516ZM77.3502 46.0644C75.7103 46.0644 74.6918 44.6346 74.6918 42.3327C74.6918 40.0282 75.7192 38.5384 77.3114 38.5384C79.089 38.5384 80.1499 39.9559 80.1499 42.3327C80.1516 44.6037 79.0554 46.0644 77.3502 46.0644Z" fill="#191825" fill-opacity="0.5"/>
<path d="M91.9216 37.0664L88.8704 43.1944L86.0495 37.0664H83.625L88.8254 47.6789L94.1669 37.0664H91.9216Z" fill="#191825" fill-opacity="0.5"/>
<path d="M97.2995 37.0659H95.2616V47.6784H97.416V37.0659H97.2995ZM95.0559 33.9565C95.0559 34.6625 95.6305 35.2354 96.3357 35.2354C97.0444 35.2354 97.6155 34.6625 97.6155 33.9565C97.6155 33.2512 97.0427 32.6758 96.3357 32.6758C95.6314 32.674 95.0559 33.2512 95.0559 33.9565Z" fill="#191825" fill-opacity="0.5"/>
<path d="M99.9389 39.7873C99.9389 41.2798 100.965 42.0662 102.859 42.993C104.053 43.5799 104.677 43.9259 104.677 44.7529C104.677 45.6011 103.911 46.1492 102.721 46.1492C101.88 46.1492 100.946 45.9127 100.021 45.4581L99.8639 45.3805L99.7942 47.2516L99.8657 47.2781C100.75 47.6302 101.679 47.8023 102.64 47.8023C105.272 47.8023 106.971 46.5481 106.971 44.6073C106.971 42.9895 105.895 42.1677 104.03 41.2975C102.664 40.6558 102.092 40.2825 102.092 39.602C102.092 38.9577 102.729 38.5376 103.714 38.5376C104.604 38.5376 105.472 38.7353 106.294 39.1271L106.449 39.1986L106.543 37.3681L106.457 37.3434C105.566 37.0786 104.686 36.9453 103.838 36.9453C101.506 36.9418 99.9389 38.0857 99.9389 39.7873Z" fill="#191825" fill-opacity="0.5"/>
<path d="M113.685 36.8164C110.451 36.8164 108.443 38.9462 108.443 42.3707C108.443 45.797 110.453 47.9232 113.685 47.9232C116.934 47.9232 118.951 45.7961 118.951 42.3707C118.951 38.947 116.932 36.8164 113.685 36.8164ZM113.704 46.1677C111.916 46.1677 110.716 44.6337 110.716 42.3504C110.716 40.0547 111.916 38.5154 113.704 38.5154C115.52 38.5154 116.693 40.0221 116.693 42.3504C116.693 44.6699 115.522 46.1677 113.704 46.1677Z" fill="#191825" fill-opacity="0.5"/>
<path d="M122.921 38.7866C122.921 38.1891 122.921 37.0673 122.921 37.0673H120.952V47.6789H123.104V42.3524C123.104 40.1194 124.037 38.889 125.74 38.889C125.984 38.889 126.222 38.9261 126.508 39.0081L126.653 39.0479L126.72 36.9534L125.798 36.8828C124.556 36.8819 123.551 37.5554 122.921 38.7866Z" fill="#191825" fill-opacity="0.5"/>
<path d="M131.853 36.5973C132.206 36.9547 132.392 37.4296 132.392 37.9406C132.392 38.4746 132.192 38.953 131.825 39.3051C131.442 39.6688 130.967 39.8638 130.471 39.8638C129.953 39.8638 129.476 39.6599 129.106 39.2769C128.752 38.9097 128.552 38.4402 128.552 37.9388C128.552 37.4278 128.755 36.9327 129.137 36.5567C129.494 36.2063 129.954 36.0156 130.471 36.0156C131.002 36.0165 131.484 36.2177 131.853 36.5973ZM129.375 36.8082C129.064 37.1189 128.898 37.5187 128.898 37.9406C128.898 38.3519 129.052 38.7305 129.349 39.0324C129.646 39.3431 130.04 39.5108 130.463 39.5108C130.875 39.5108 131.27 39.3528 131.575 39.0562C131.875 38.7676 132.04 38.3722 132.04 37.9397C132.04 37.5169 131.887 37.133 131.596 36.8391C131.29 36.5284 130.903 36.3651 130.471 36.3651C130.046 36.3651 129.672 36.5169 129.375 36.8082ZM130.506 36.8444C131.108 36.8444 131.417 37.0624 131.417 37.4569C131.417 37.7288 131.256 37.9397 130.969 38.0262L131.442 38.9521H130.801L130.407 38.1162H130.24V38.9521H129.659V36.8435L130.506 36.8444ZM130.236 37.7729H130.438C130.696 37.7729 130.821 37.682 130.821 37.5011C130.821 37.2945 130.69 37.2098 130.407 37.2098H130.236V37.7729Z" fill="#191825" fill-opacity="0.5"/>
<path d="M193.355 47.6465H191.158C191.145 47.6465 191.145 47.6465 191.138 47.6395L189.247 45.3314L187.356 47.6395C187.349 47.6465 187.342 47.6465 187.335 47.6465H185.576C185.562 47.6465 185.555 47.6395 185.548 47.6326C185.548 47.6256 185.548 47.6117 185.555 47.6048L188.343 44.1843L185.59 40.7987C185.583 40.7848 185.583 40.7778 185.583 40.7639C185.59 40.757 185.597 40.75 185.604 40.75H187.801C187.808 40.75 187.814 40.757 187.821 40.7639L189.483 42.8217L191.172 40.7639C191.179 40.757 191.186 40.75 191.193 40.75H192.98C192.987 40.75 193.001 40.757 193.008 40.7639C193.015 40.7778 193.008 40.7848 193.001 40.7987L190.394 43.9341L193.383 47.6048C193.39 47.6117 193.39 47.6256 193.39 47.6326C193.376 47.6465 193.369 47.6465 193.355 47.6465Z" fill="#191825" fill-opacity="0.5"/>
<path d="M205.236 41.9595C204.263 41.9595 203.603 42.5505 203.408 43.5724H206.717V43.5029C206.717 42.6895 206.112 41.9595 205.236 41.9595ZM208.421 44.6291C208.414 44.6361 208.407 44.6431 208.4 44.6431H203.373C203.478 45.811 204.235 46.4784 205.466 46.4784C206.224 46.4784 207.03 46.2212 208.163 45.6163C208.184 45.6024 208.205 45.6233 208.205 45.6442V47.1875C208.205 47.2014 208.198 47.2084 208.191 47.2084C207.134 47.6533 206.071 47.9592 205.236 47.9592C203.074 47.9592 201.503 46.3811 201.503 44.212C201.503 42.043 203.074 40.4648 205.236 40.4648C207.211 40.4648 208.476 41.7927 208.476 43.6211C208.476 43.92 208.427 44.6083 208.421 44.6291Z" fill="#191825" fill-opacity="0.5"/>
<path d="M218.626 39.3176C218.007 39.3176 217.507 38.824 217.507 38.2191C217.507 37.5934 218.007 37.0859 218.626 37.0859C219.245 37.0859 219.745 37.5934 219.745 38.2191C219.745 38.824 219.245 39.3176 218.626 39.3176ZM217.722 47.6462C217.701 47.6462 217.695 47.6392 217.695 47.6184V40.7705C217.695 40.7566 217.701 40.7427 217.715 40.7427H219.53C219.544 40.7427 219.551 40.7566 219.551 40.7705V47.6184C219.551 47.6392 219.537 47.6462 219.523 47.6462H217.722Z" fill="#191825" fill-opacity="0.5"/>
<path d="M196.678 46.6174C196.352 46.6174 196.018 46.5688 195.629 46.4715L195.635 42.0777C196.087 41.9317 196.477 41.8692 196.866 41.8692C198.124 41.8692 198.966 42.7938 198.966 44.1773C198.966 45.6581 198.069 46.6174 196.678 46.6174ZM197.172 40.4648C196.657 40.4648 196.143 40.5552 195.601 40.7429H193.793C193.779 40.7429 193.765 40.7568 193.765 40.7707V51.9984C194.308 51.9219 194.975 51.7272 195.629 51.2684V47.8549C196.073 47.9175 196.442 47.9592 196.796 47.9592C199.271 47.9592 200.87 46.4784 200.87 44.1842C200.87 41.9943 199.348 40.4648 197.172 40.4648Z" fill="#191825" fill-opacity="0.5"/>
<path d="M214.42 46.0501C213.857 46.3491 213.349 46.4881 212.877 46.4881C211.757 46.4881 211.083 45.6956 211.083 44.3677C211.083 42.8383 211.938 41.8441 213.266 41.8441C213.635 41.8441 213.989 41.9345 214.42 42.1291V46.0501ZM214.42 37.1236V40.704C213.892 40.551 213.426 40.4815 212.953 40.4815C210.798 40.4815 209.178 42.1013 209.178 44.2565C209.178 46.3977 210.61 47.955 212.585 47.955C213.266 47.955 213.906 47.7812 214.656 47.3988V48.0176C215.15 47.9202 215.72 47.7256 216.283 47.3224V36.3867C215.734 36.4632 215.081 36.6509 214.42 37.1236Z" fill="#191825" fill-opacity="0.5"/>
<path d="M225.842 46.0352C225.293 46.348 224.827 46.501 224.41 46.501C223.208 46.501 222.492 45.7084 222.492 44.3806C222.492 42.872 223.34 41.857 224.598 41.857C224.932 41.857 225.342 41.9891 225.842 42.2533V46.0352ZM227.706 40.6612C227.706 40.6195 227.671 40.5848 227.629 40.5848H226.162C226.121 40.5848 226.079 40.6195 226.079 40.6612V40.9115H226.044C225.37 40.6126 224.786 40.4805 224.223 40.4805C222.193 40.4805 220.601 42.1629 220.601 44.318C220.601 46.494 222.026 47.954 224.146 47.954C224.709 47.954 225.439 47.9123 226.121 47.1336V48.0165C226.6 47.9123 227.17 47.7106 227.706 47.3213V40.6612Z" fill="#191825" fill-opacity="0.5"/>
<path d="M180.556 45.9396H185.11C185.041 46.4471 184.867 47.0449 184.477 47.6498H179.743C179.166 47.6498 178.686 47.1979 178.631 46.6348C178.631 46.6278 178.624 46.6209 178.624 46.607V37.6248C178.624 37.6179 178.631 37.6109 178.631 37.604C178.686 37.0339 179.166 36.582 179.743 36.582H185.103C185.034 37.0895 184.86 37.7013 184.464 38.3062H180.556V40.7533H184.429C184.443 40.7533 184.457 40.7672 184.457 40.7811V42.4774C184.457 42.4913 184.443 42.5052 184.429 42.5052H180.556V45.9396Z" fill="#191825" fill-opacity="0.5"/>
<path d="M174.856 47.7952C174.404 47.7952 174.126 47.4407 174.126 47.0096C174.126 46.5508 174.446 46.2241 174.856 46.2241C175.259 46.2241 175.579 46.5438 175.579 47.0096C175.579 47.4754 175.259 47.7952 174.856 47.7952ZM174.856 46.1406C174.397 46.1406 174.001 46.4882 174.001 47.0096C174.001 47.5032 174.355 47.8786 174.856 47.8786C175.308 47.8786 175.704 47.531 175.704 47.0096C175.704 46.4882 175.315 46.1406 174.856 46.1406Z" fill="#191825" fill-opacity="0.5"/>
<path d="M174.654 46.9402V46.6204H174.87C174.981 46.6204 175.106 46.6343 175.106 46.7664C175.106 46.9263 174.988 46.9332 174.856 46.9332C174.849 46.9402 174.654 46.9402 174.654 46.9402ZM175.259 46.7872C175.259 46.5787 175.134 46.4883 174.883 46.4883H174.494V47.5172H174.661V47.0792H174.821L175.085 47.5172H175.28L174.995 47.0653C175.148 47.0514 175.259 46.9749 175.259 46.7872Z" fill="#191825" fill-opacity="0.5"/>
<path d="M229.207 41.8859C228.755 41.8859 228.477 41.5314 228.477 41.1003C228.477 40.6415 228.797 40.3148 229.207 40.3148C229.61 40.3148 229.93 40.6346 229.93 41.1003C229.93 41.5661 229.61 41.8859 229.207 41.8859ZM229.207 40.2383C228.748 40.2383 228.352 40.5859 228.352 41.1073C228.352 41.6009 228.707 41.9763 229.207 41.9763C229.659 41.9763 230.055 41.6287 230.055 41.1073C230.055 40.5789 229.659 40.2383 229.207 40.2383Z" fill="#191825" fill-opacity="0.5"/>
<path d="M228.999 41.0309V40.718H229.214C229.325 40.718 229.451 40.7319 229.451 40.864C229.451 41.0239 229.332 41.0309 229.2 41.0309H228.999ZM229.61 40.8849C229.61 40.6763 229.485 40.5859 229.235 40.5859H228.846V41.6148H229.013V41.1769H229.172L229.437 41.6148H229.631L229.346 41.163C229.492 41.1491 229.61 41.0726 229.61 40.8849Z" fill="#191825" fill-opacity="0.5"/>
<path d="M168.981 38.2974L168.654 37.3658L165.846 33.6187L166.346 33.4935L171.178 37.6717L174.021 36.8583C174.355 36.7749 174.738 36.7541 175.023 36.7541C174.133 34.8283 172.492 33.2432 170.337 32.4785C166.075 30.956 161.383 33.1876 159.867 37.4562C159.394 38.7771 159.29 40.1397 159.485 41.4328L166.291 39.0691L168.981 38.2974Z" fill="#191825" fill-opacity="0.5"/>
<path d="M175.328 37.4922C175.078 37.6521 174.71 37.8676 174.348 37.9858L171.498 38.7992L169.6 44.9031L169.106 45.063L169.51 40.4051L169.287 39.4388L166.618 40.2035L159.554 41.8512C160.117 44.5625 162.036 46.9331 164.838 47.9273C169.106 49.4498 173.792 47.2182 175.315 42.9496C175.968 41.1212 175.926 39.2024 175.328 37.4922Z" fill="#191825" fill-opacity="0.5"/>
<path d="M169.28 39.4323L169.503 40.3987L169.099 45.0566L169.593 44.8967L171.491 38.7927L174.341 37.9793C174.703 37.8611 175.071 37.6526 175.322 37.4857C175.231 37.2355 175.134 36.9921 175.023 36.7488C174.731 36.7488 174.355 36.7627 174.022 36.8531L171.178 37.6665L166.346 33.4883L165.846 33.6134L168.648 37.3606L168.974 38.2922L166.284 39.0639L159.478 41.4276C159.499 41.5666 159.526 41.7126 159.554 41.8517L166.611 40.1901L169.28 39.4323Z" fill="white"/>
<mask id="mask0_1156_1713" style="mask-type:luminance" maskUnits="userSpaceOnUse" x="257" y="32" width="118" height="20">
<path d="M374.933 32H257.055V52H374.933V32Z" fill="white"/>
</mask>
<g mask="url(#mask0_1156_1713)">
<mask id="mask1_1156_1713" style="mask-type:luminance" maskUnits="userSpaceOnUse" x="257" y="32" width="118" height="20">
<path d="M374.933 32H257.055V52H374.933V32Z" fill="white"/>
</mask>
<g mask="url(#mask1_1156_1713)">
<path d="M303.279 34.188C303.279 33.2003 304.08 32.3945 305.072 32.3945C306.06 32.3945 306.866 33.1957 306.866 34.188C306.831 35.1757 305.998 35.947 305.008 35.9124C304.068 35.8779 303.315 35.1251 303.279 34.188Z" fill="#191825" fill-opacity="0.5"/>
</g>
<mask id="mask2_1156_1713" style="mask-type:luminance" maskUnits="userSpaceOnUse" x="257" y="32" width="118" height="20">
<path d="M374.933 32H257.055V52H374.933V32Z" fill="white"/>
</mask>
<g mask="url(#mask2_1156_1713)">
<path d="M331.544 46.1379C331.544 45.1433 332.345 44.3398 333.33 44.3398C334.323 44.3398 335.126 45.1433 335.126 46.1379C335.126 47.1302 334.323 47.9337 333.33 47.9337C332.345 47.9337 331.544 47.1279 331.544 46.1379Z" fill="#191825" fill-opacity="0.5"/>
</g>
<mask id="mask3_1156_1713" style="mask-type:luminance" maskUnits="userSpaceOnUse" x="257" y="32" width="118" height="20">
<path d="M374.933 32H257.055V52H374.933V32Z" fill="white"/>
</mask>
<g mask="url(#mask3_1156_1713)">
<path d="M273.885 45.3585C272.345 45.3585 271.27 44.1337 271.27 42.3816C271.27 40.6319 272.343 39.4071 273.885 39.4071C275.435 39.4071 276.521 40.6319 276.521 42.3816C276.519 44.1613 275.46 45.3585 273.885 45.3585ZM273.885 36.7917C270.623 36.7917 268.254 39.1423 268.254 42.3816C268.254 45.621 270.625 47.9716 273.885 47.9716C277.164 47.9716 279.54 45.621 279.54 42.384C279.54 39.1423 277.159 36.7917 273.885 36.7917ZM299.811 42.6625C299.699 42.4438 299.554 42.2389 299.385 42.0593L299.286 41.9557L299.39 41.8567C299.54 41.6979 299.694 41.5114 299.839 41.295L302.719 37.0127H299.222L297.058 40.3625C296.936 40.5444 296.69 40.6296 296.319 40.6296H295.824V34.296C295.824 33.0297 295.036 32.8594 294.182 32.8594H292.723L292.725 47.8058H295.822V43.3256H296.112C296.464 43.3256 296.703 43.367 296.816 43.5581L298.524 46.7836C299.003 47.6585 299.478 47.8082 300.371 47.8082H302.751L300.981 44.8865L299.811 42.6625ZM314.855 36.7687C313.278 36.7687 312.271 37.4686 311.71 38.0626L311.523 38.2536L311.456 37.9958C311.291 37.3604 310.733 37.015 309.893 37.015H308.505L308.514 47.8082H311.592V42.8352C311.592 42.3471 311.654 41.9281 311.783 41.5413C312.126 40.3764 313.082 39.6488 314.274 39.6488C315.234 39.6488 315.612 40.1553 315.612 41.4676V46.1689C315.612 47.2855 316.128 47.8104 317.249 47.8104H318.711L318.704 40.945C318.704 38.2076 317.371 36.7687 314.855 36.7687ZM305.111 37.0127H303.652L303.661 45.3585V47.8058H305.217L305.272 47.8082L306 47.8058H306.721V47.8035H306.727L306.734 38.6542C306.73 37.5491 306.203 37.0127 305.111 37.0127ZM285.97 45.3585C284.43 45.3585 283.355 44.1337 283.355 42.3816C283.355 40.6319 284.43 39.4071 285.97 39.4071C287.517 39.4071 288.606 40.6319 288.606 42.3816C288.604 44.1613 287.545 45.3585 285.97 45.3585ZM285.97 36.7917C282.705 36.7917 280.334 39.1423 280.334 42.3816C280.334 45.621 282.705 47.9716 285.97 47.9716C289.242 47.9716 291.624 45.621 291.624 42.384C291.624 39.1423 289.244 36.7917 285.97 36.7917Z" fill="#191825" fill-opacity="0.5"/>
</g>
</g>
<mask id="mask4_1156_1713" style="mask-type:luminance" maskUnits="userSpaceOnUse" x="257" y="32" width="118" height="20">
<path d="M374.933 32H257.055V52H374.933V32Z" fill="white"/>
</mask>
<g mask="url(#mask4_1156_1713)">
<mask id="mask5_1156_1713" style="mask-type:luminance" maskUnits="userSpaceOnUse" x="257" y="32" width="118" height="20">
<path d="M374.907 32.3945H257.055V51.9755H374.907V32.3945Z" fill="white"/>
</mask>
<g mask="url(#mask5_1156_1713)">
<mask id="mask6_1156_1713" style="mask-type:luminance" maskUnits="userSpaceOnUse" x="257" y="32" width="118" height="20">
<path d="M374.933 32H257.055V52H374.933V32Z" fill="white"/>
</mask>
<g mask="url(#mask6_1156_1713)">
<path d="M351.926 45.3598C350.386 45.3598 349.31 44.135 349.31 42.3829C349.31 40.6332 350.386 39.4084 351.926 39.4084C353.475 39.4084 354.562 40.6332 354.562 42.3829C354.562 44.1626 353.501 45.3598 351.926 45.3598ZM351.926 36.793C348.661 36.793 346.29 39.1436 346.29 42.3829C346.29 45.6223 348.657 47.9729 351.926 47.9729C355.2 47.9729 357.58 45.6223 357.58 42.3852C357.58 39.1436 355.197 36.793 351.926 36.793Z" fill="#191825" fill-opacity="0.5"/>
</g>
<mask id="mask7_1156_1713" style="mask-type:luminance" maskUnits="userSpaceOnUse" x="257" y="32" width="118" height="20">
<path d="M374.933 32H257.055V52H374.933V32Z" fill="white"/>
</mask>
<g mask="url(#mask7_1156_1713)">
<path d="M325.189 44.8824C323.506 44.8824 322.91 43.4158 322.91 42.0414C322.91 41.4336 323.064 39.4605 325.033 39.4605C326.009 39.4605 327.31 39.7414 327.31 42.1404C327.308 44.4081 326.154 44.8824 325.189 44.8824ZM328.905 36.9878C328.321 36.9878 327.872 37.2204 327.646 37.6463L327.563 37.8121L327.42 37.6854C326.923 37.2549 326.032 36.7461 324.588 36.7461C321.711 36.7461 319.774 38.9056 319.774 42.1242C319.774 45.3382 321.78 47.583 324.648 47.583C325.627 47.583 326.403 47.3527 327.015 46.8877L327.25 46.7104V47.0097C327.25 48.4532 326.318 49.2475 324.628 49.2475C323.803 49.2475 323.057 49.0472 322.558 48.8654C321.906 48.6674 321.522 48.8331 321.259 49.4847L321.013 50.0879L320.668 50.9697L320.882 51.0825C321.964 51.658 323.373 51.9988 324.644 51.9988C327.264 51.9988 330.324 50.6588 330.324 46.8831L330.333 36.9809H328.905" fill="#191825" fill-opacity="0.5"/>
</g>
</g>
</g>
<mask id="mask8_1156_1713" style="mask-type:luminance" maskUnits="userSpaceOnUse" x="257" y="32" width="118" height="20">
<path d="M374.933 32H257.055V52H374.933V32Z" fill="white"/>
</mask>
<g mask="url(#mask8_1156_1713)">
<mask id="mask9_1156_1713" style="mask-type:luminance" maskUnits="userSpaceOnUse" x="257" y="32" width="118" height="20">
<path d="M374.933 32H257.055V52H374.933V32Z" fill="white"/>
</mask>
<g mask="url(#mask9_1156_1713)">
<path d="M262.427 45.2351L259.919 45.2328V42.2398C259.919 41.5975 260.168 41.2682 260.714 41.19H262.422C263.64 41.19 264.427 41.9589 264.432 43.2022C264.432 44.4799 263.663 45.2351 262.427 45.2351ZM259.919 37.1587V36.3713C259.919 35.6806 260.21 35.3537 260.852 35.3122H262.134C263.232 35.3122 263.891 35.9707 263.891 37.0712C263.891 37.9115 263.44 38.89 262.173 38.89H259.919V37.1587ZM265.622 40.147L265.171 39.8915L265.565 39.553C266.027 39.1593 266.794 38.2684 266.794 36.7327C266.794 34.3821 264.973 32.8672 262.153 32.8672H258.57C257.735 32.8971 257.065 33.5809 257.055 34.4166V47.7515H262.219C265.355 47.7515 267.377 46.0455 267.377 43.4025C267.377 41.9843 266.72 40.7663 265.622 40.147Z" fill="#191825" fill-opacity="0.5"/>
</g>
<mask id="mask10_1156_1713" style="mask-type:luminance" maskUnits="userSpaceOnUse" x="257" y="32" width="118" height="20">
<path d="M374.933 32H257.055V52H374.933V32Z" fill="white"/>
</mask>
<g mask="url(#mask10_1156_1713)">
<path d="M371.325 36.8031C370.04 36.8054 368.822 37.3971 368.021 38.4055L367.798 38.6864L367.623 38.3709C367.052 37.3303 366.074 36.8054 364.706 36.8054C363.276 36.8054 362.316 37.602 361.87 38.0786L361.579 38.394L361.467 37.9773C361.305 37.3787 360.771 37.0494 359.966 37.0494H358.672L358.658 47.8011H361.596V43.0538C361.596 42.6371 361.646 42.2273 361.75 41.7968C362.031 40.6502 362.802 39.4162 364.098 39.5382C364.895 39.6165 365.286 40.2335 365.286 41.4238V47.7988H368.245V43.0515C368.245 42.5312 368.293 42.1398 368.41 41.753C368.645 40.6571 369.453 39.5336 370.703 39.5336C371.608 39.5336 371.944 40.0447 371.944 41.4238V46.2264C371.944 47.3107 372.428 47.7988 373.515 47.7988H374.896L374.898 40.9357C374.907 38.1914 373.699 36.8031 371.325 36.8031ZM344.589 44.0668C344.579 44.076 343.315 45.4114 341.651 45.4114C340.134 45.4114 338.603 44.4812 338.603 42.4046C338.603 40.6111 339.791 39.3563 341.492 39.3563C342.045 39.3563 342.671 39.5543 342.77 39.8859L342.784 39.9411C342.912 40.4131 343.343 40.7377 343.829 40.7354L345.438 40.7377V39.3287C345.438 37.4707 343.078 36.8008 341.487 36.8008C338.089 36.8008 335.626 39.1652 335.626 42.423C335.626 45.6784 338.064 48.0429 341.425 48.0429C344.342 48.0429 345.926 46.1251 345.942 46.1089L346.025 46.0053L344.75 43.8895L344.589 44.0668Z" fill="#191825" fill-opacity="0.5"/>
</g>
</g>
<path d="M133.493 89.0253C133.493 89.7461 132.912 90.3265 132.192 90.3265C131.471 90.3265 130.89 89.7461 130.89 89.0253C130.89 88.3045 131.451 87.7241 132.192 87.7241C132.933 87.7441 133.493 88.3247 133.493 89.0253ZM128.128 91.6481V91.9684C128.128 91.9684 127.507 91.1673 126.186 91.1673C124.004 91.1673 122.302 92.829 122.302 95.1312C122.302 97.4135 123.984 99.0951 126.186 99.0951C127.527 99.0951 128.128 98.2743 128.128 98.2743V98.6145C128.128 98.7747 128.248 98.8945 128.408 98.8945H130.029V91.3669H128.408C128.248 91.3675 128.128 91.5079 128.128 91.6481ZM128.128 96.4726C127.828 96.9131 127.227 97.2935 126.506 97.2935C125.225 97.2935 124.244 96.4928 124.244 95.1312C124.244 93.7698 125.225 92.969 126.506 92.969C127.207 92.969 127.848 93.3694 128.128 93.7898V96.4726ZM131.231 91.3675H133.153V98.8951H131.231V91.3675ZM159.939 91.1671C158.618 91.1671 157.997 91.9682 157.997 91.9682V87.7441H156.075V98.8951H157.697C157.857 98.8951 157.977 98.7549 157.977 98.6147V98.2745C157.977 98.2745 158.598 99.0953 159.919 99.0953C162.101 99.0953 163.803 97.4141 163.803 95.1318C163.803 92.8494 162.101 91.1671 159.939 91.1671ZM159.619 97.2733C158.878 97.2733 158.297 96.8933 157.997 96.4525V93.7698C158.297 93.3694 158.938 92.949 159.619 92.949C160.9 92.949 161.881 93.7498 161.881 95.1112C161.881 96.4725 160.9 97.2733 159.619 97.2733ZM155.075 94.4308V98.9151H153.152V94.6508C153.152 93.4098 152.752 92.909 151.672 92.909C151.091 92.909 150.49 93.2094 150.109 93.65V98.8953H148.188V91.3677H149.709C149.869 91.3677 149.989 91.5079 149.989 91.6481V91.9684C150.55 91.3877 151.291 91.1673 152.031 91.1673C152.872 91.1673 153.573 91.4079 154.134 91.8882C154.814 92.4488 155.075 93.1694 155.075 94.4308ZM143.523 91.1671C142.202 91.1671 141.581 91.9682 141.581 91.9682V87.7441H139.659V98.8951H141.281C141.441 98.8951 141.561 98.7549 141.561 98.6147V98.2745C141.561 98.2745 142.182 99.0953 143.503 99.0953C145.685 99.0953 147.387 97.4141 147.387 95.1318C147.407 92.8492 145.705 91.1671 143.523 91.1671ZM143.202 97.2733C142.462 97.2733 141.881 96.8933 141.581 96.4525V93.7698C141.881 93.3694 142.522 92.949 143.202 92.949C144.484 92.949 145.465 93.7498 145.465 95.1112C145.465 96.4725 144.484 97.2733 143.202 97.2733ZM137.997 91.1671C138.578 91.1671 138.878 91.2675 138.878 91.2675V93.049C138.878 93.049 137.277 92.5084 136.276 93.6498V98.9149H134.354V91.3675H135.976C136.136 91.3675 136.256 91.5077 136.256 91.6479V91.9682C136.616 91.5476 137.397 91.1671 137.997 91.1671ZM118.038 98.2143C117.938 97.9741 117.838 97.7139 117.738 97.4935C117.578 97.1333 117.417 96.7927 117.278 96.4726L117.258 96.4525C115.876 93.4494 114.395 90.4067 112.833 87.4039L112.773 87.2835C112.609 86.972 112.449 86.6583 112.293 86.3426C112.092 85.982 111.892 85.602 111.572 85.2414C110.931 84.4406 110.01 84 109.03 84C108.028 84 107.128 84.4406 106.467 85.2012C106.167 85.5614 105.947 85.9418 105.747 86.3024C105.59 86.618 105.43 86.9316 105.266 87.2433L105.206 87.3637C103.665 90.3665 102.163 93.4094 100.782 96.4124L100.762 96.4522C100.622 96.7729 100.461 97.1131 100.301 97.4731C100.201 97.6935 100.101 97.9337 100.001 98.1939C99.7407 98.9345 99.6605 99.6353 99.7609 100.356C99.9811 101.858 100.982 103.119 102.363 103.68C102.884 103.9 103.425 104 103.985 104C104.145 104 104.345 103.98 104.506 103.96C105.166 103.88 105.847 103.66 106.508 103.279C107.329 102.819 108.109 102.158 108.99 101.197C109.871 102.158 110.672 102.819 111.472 103.279C112.133 103.66 112.814 103.88 113.474 103.96C113.635 103.98 113.835 104 113.995 104C114.556 104 115.116 103.9 115.617 103.68C117.018 103.119 117.999 101.838 118.219 100.356C118.378 99.6557 118.298 98.9553 118.038 98.2143ZM109.009 99.2553C107.928 97.8939 107.228 96.6127 106.988 95.532C106.888 95.0714 106.867 94.671 106.928 94.3106C106.967 93.9902 107.088 93.7098 107.248 93.4696C107.628 92.9294 108.269 92.5888 109.01 92.5888C109.751 92.5888 110.411 92.9092 110.772 93.4696C110.932 93.7098 111.052 93.9904 111.092 94.3106C111.152 94.6712 111.132 95.0914 111.032 95.532C110.791 96.5927 110.09 97.8741 109.009 99.2553ZM116.997 100.196C116.857 101.237 116.156 102.138 115.175 102.539C114.695 102.739 114.174 102.799 113.654 102.739C113.154 102.679 112.653 102.518 112.133 102.218C111.412 101.818 110.691 101.197 109.85 100.276C111.171 98.6549 111.972 97.1731 112.273 95.8522C112.413 95.2314 112.433 94.671 112.373 94.1502C112.293 93.6498 112.112 93.1892 111.832 92.7888C111.211 91.8876 110.17 91.3675 109.009 91.3675C107.849 91.3675 106.807 91.908 106.187 92.7888C105.907 93.1892 105.726 93.6498 105.646 94.1502C105.566 94.671 105.586 95.2514 105.746 95.8522C106.046 97.1731 106.867 98.6747 108.168 100.296C107.348 101.217 106.607 101.838 105.886 102.238C105.365 102.539 104.865 102.699 104.365 102.759C103.824 102.819 103.304 102.739 102.843 102.559C101.862 102.158 101.162 101.257 101.022 100.216C100.962 99.7159 101.001 99.2155 101.202 98.6549C101.262 98.4545 101.362 98.2545 101.462 98.0143C101.602 97.6939 101.762 97.3533 101.922 97.0131L101.943 96.9733C103.324 93.9902 104.805 90.9473 106.347 87.9845L106.407 87.8641C106.567 87.5641 106.727 87.2437 106.887 86.9433C107.048 86.6229 107.228 86.3226 107.448 86.0622C107.868 85.5822 108.429 85.3216 109.049 85.3216C109.67 85.3216 110.231 85.5822 110.651 86.0622C110.871 86.3232 111.051 86.6235 111.212 86.9433C111.372 87.2437 111.532 87.5641 111.692 87.8641L111.752 87.9845C113.27 90.9596 114.732 93.963 116.137 96.9933V97.0133C116.297 97.3341 116.437 97.6941 116.597 98.0149C116.697 98.2547 116.797 98.4547 116.857 98.6551C117.017 99.1751 117.077 99.6759 116.997 100.196Z" fill="#191825" fill-opacity="0.5"/>
<path d="M252.182 103.464L260.497 84.6467C260.628 84.3612 260.474 84.1156 260.154 84.1156H254.329C254.159 84.1253 253.994 84.1801 253.851 84.2744C253.709 84.3687 253.594 84.4992 253.518 84.6524L245.306 103.464C245.186 103.756 245.34 103.996 245.654 103.996H251.371C251.691 103.996 252.056 103.756 252.182 103.464ZM281.999 98.3988L294.906 84.1213H279.812L276.396 89.621H282.319L269.201 104.001H285.174L291.125 98.3988H281.999ZM226.762 84.1156H216.768C216.472 84.1328 216.185 84.2279 215.937 84.3914C215.69 84.5548 215.49 84.7808 215.357 85.0465L207.493 103.07C207.265 103.584 207.545 104.001 208.104 104.001H213.056C213.615 104.001 214.255 103.584 214.472 103.076L216.717 97.9648H219.041C219.766 97.9191 220.075 98.1875 219.675 99.027L217.95 103.07C217.733 103.584 218.007 104.001 218.567 104.001H223.518C223.816 103.986 224.104 103.891 224.353 103.728C224.601 103.564 224.802 103.337 224.935 103.07L227.185 97.8677C227.893 96.1772 226.871 94.8694 225.386 94.8009C226.699 94.3269 227.91 93.0191 228.453 91.8312L229.618 89.0899C231.023 85.9031 230.023 84.0756 226.762 84.1213M223.85 89.8038L222.616 92.5165C222.33 93.1675 221.919 93.2189 221.508 93.2018H218.727L220.589 88.9757H223.256C223.907 89.0156 224.072 89.2498 223.85 89.8038ZM246.214 84.1099H235.626C235.414 84.1209 235.208 84.1881 235.031 84.3045C234.853 84.4209 234.71 84.5823 234.615 84.7724L226.511 103.333C226.357 103.699 226.545 103.99 226.945 103.99H238.281C241.873 103.938 243.935 103.145 245.574 99.3411L246.739 96.8054C247.653 94.6353 246.756 93.6929 245.043 93.4188C246.471 92.9791 247.544 91.637 248.007 90.4548L248.955 88.4445C250.12 85.7604 249.149 84.0756 246.208 84.1099M241.017 96.5599L240.297 98.0048C239.937 99.0099 239.309 99.284 238.424 99.2954H235.112L236.699 95.5547H240.012C240.948 95.6233 241.314 95.8517 241.017 96.5599ZM242.919 89.9008L242.422 91.043L242.347 91.1915C242.265 91.4298 242.106 91.6341 241.895 91.7725C241.684 91.9109 241.434 91.9757 241.182 91.9568H238.31L239.623 88.93H242.553C243.078 88.9642 243.164 89.3069 242.919 89.9008ZM262.33 84.1156L259.869 89.621H263.381C263.621 89.621 263.735 89.7923 263.638 90.0151L257.499 103.607C257.396 103.824 257.516 104.001 257.756 104.001H264.009C264.249 104.001 264.523 103.824 264.62 103.602L270.514 90.0151C270.571 89.9008 270.656 89.8036 270.763 89.7333C270.869 89.6631 270.992 89.6223 271.12 89.6153H274.723L278.115 84.1156H262.33ZM210.446 90.8888L211.223 89.1927C212.787 85.6176 211.754 84.0813 208.681 84.1213H201.285C198.241 84.0813 195.706 85.7946 194.301 88.9814L192.016 95.4348H189.858L193.987 101.009L200.811 95.4348H199.075L201.08 90.7803C201.405 90.0151 201.965 89.6496 202.565 89.621H203.73C204.004 89.6324 204.192 89.7181 204.301 89.838L207.922 86.7941L210.446 90.8888Z" fill="#191825" fill-opacity="0.5"/>
<path d="M193.833 102.646L190.794 98.7972L190.634 99.1399C189.224 102.349 189.458 103.949 192.502 103.994H199.801C202.822 103.949 205.466 102.349 206.882 99.1399L209.052 94.1656H210.994L207.682 88.5859L200.914 94.1656H202.77L201.4 97.3352C201.068 98.0091 200.566 98.3746 200.029 98.3974H199.058L193.833 102.646Z" fill="#191825" fill-opacity="0.5"/>
<path d="M297.31 84.0001C297.579 84.0001 297.807 84.0972 297.996 84.2856C298.184 84.4741 298.281 84.7025 298.281 84.9709C298.281 85.2337 298.184 85.4621 297.996 85.6563C297.807 85.8504 297.579 85.9418 297.31 85.9418C297.183 85.9438 297.056 85.9194 296.938 85.8703C296.82 85.8212 296.713 85.7483 296.625 85.6563C296.436 85.4621 296.339 85.2337 296.339 84.9709C296.339 84.7082 296.436 84.4684 296.625 84.2856C296.714 84.1938 296.82 84.1212 296.938 84.072C297.056 84.0229 297.183 83.9984 297.31 84.0001ZM297.31 85.7591C297.415 85.7614 297.519 85.7424 297.616 85.7031C297.714 85.6638 297.802 85.6051 297.876 85.5306C297.95 85.4571 298.009 85.3689 298.049 85.2717C298.088 85.1744 298.107 85.0701 298.104 84.9652C298.106 84.8613 298.087 84.7581 298.047 84.6619C298.008 84.5657 297.95 84.4784 297.876 84.4056C297.802 84.3308 297.714 84.2719 297.617 84.2326C297.519 84.1933 297.415 84.1744 297.31 84.1771C297.206 84.1749 297.103 84.194 297.007 84.2333C296.91 84.2726 296.823 84.3312 296.751 84.4056C296.596 84.5598 296.522 84.7482 296.522 84.9652C296.522 85.1823 296.596 85.3764 296.751 85.5306C296.905 85.6848 297.093 85.7591 297.31 85.7591ZM297.807 85.4849H297.579L297.293 85.0737H297.173V85.4849H296.968V84.4398H297.293C297.407 84.4398 297.499 84.4684 297.567 84.5198C297.636 84.5769 297.676 84.6511 297.676 84.7482C297.676 84.8739 297.607 84.9709 297.476 85.0223L297.807 85.4849ZM297.179 84.9024H297.287C297.419 84.9024 297.482 84.851 297.482 84.7539C297.482 84.6568 297.424 84.6112 297.293 84.6112H297.179V84.9024Z" fill="#191825" fill-opacity="0.5"/>
</svg>
