<svg width="160" height="33" viewBox="0 0 160 33" fill="none" xmlns="http://www.w3.org/2000/svg">
<path d="M16 0.378906C7.1808 0.378906 0 7.55971 0 16.3789C0 25.1981 7.1808 32.3789 16 32.3789C24.8192 32.3789 32 25.2045 32 16.3789C32 7.55331 24.8256 0.378906 16 0.378906ZM20.4352 9.87011C20.4352 10.0045 20.3264 10.1133 20.192 10.1133H18.2656C17.792 10.1133 17.408 10.4973 17.408 10.9709V12.9869H20.1472C20.1536 12.9869 20.16 12.9869 20.1664 12.9869C20.3008 12.9997 20.3968 13.1149 20.384 13.2493L20.1408 16.0909C20.128 16.2189 20.0256 16.3149 19.8976 16.3149H17.4016V25.7421C17.4016 25.8765 17.2928 25.9853 17.1584 25.9853H13.7152C13.5808 25.9853 13.472 25.8765 13.472 25.7421V16.4557V16.3021H11.7504C11.616 16.3021 11.5072 16.1933 11.5072 16.0589V13.2173C11.5072 13.0829 11.616 12.9741 11.7504 12.9741H13.472V10.2349C13.472 8.32771 15.0208 6.77891 16.928 6.77891H20.1792C20.3136 6.77891 20.4224 6.88771 20.4224 7.02211V9.87011H20.4352Z" fill="#5D50C6"/>
<path d="M80 32.3789C88.8366 32.3789 96 25.2155 96 16.3789C96 7.54235 88.8366 0.378906 80 0.378906C71.1634 0.378906 64 7.54235 64 16.3789C64 25.2155 71.1634 32.3789 80 32.3789Z" fill="#5D50C6"/>
<path d="M89.8005 11.8774C89.1149 12.1815 88.3773 12.3871 87.6038 12.4789C88.3935 12.0058 88.9996 11.2571 89.2857 10.3635C88.5467 10.8019 87.7279 11.1199 86.8571 11.2913C86.1595 10.5483 85.1655 10.084 84.0648 10.084C81.9531 10.084 80.2404 11.7967 80.2404 13.9084C80.2404 14.2082 80.2743 14.5 80.3399 14.7801C77.1615 14.6206 74.3433 13.0981 72.4569 10.7836C72.1277 11.3483 71.9389 12.0058 71.9389 12.7065C71.9389 14.0331 72.6146 15.2042 73.6402 15.8898C73.0136 15.8701 72.4235 15.6982 71.9081 15.4109C71.9078 15.4272 71.9078 15.4435 71.9078 15.4594C71.9078 17.3125 73.2267 18.8581 74.9759 19.2092C74.6553 19.297 74.3168 19.3435 73.9685 19.3435C73.7215 19.3435 73.4822 19.3198 73.2489 19.2753C73.7355 20.7944 75.1476 21.9002 76.8215 21.9313C75.5124 22.9572 73.8635 23.5684 72.0713 23.5684C71.7632 23.5684 71.458 23.5504 71.1594 23.5148C72.851 24.6003 74.8618 25.2332 77.0215 25.2332C84.056 25.2332 87.903 19.4057 87.903 14.3514C87.903 14.1857 87.8993 14.0205 87.8919 13.8568C88.6397 13.3178 89.288 12.6444 89.8005 11.8774Z" fill="#F1F2F2"/>
<path d="M144 32.3789C152.837 32.3789 160 25.2155 160 16.3789C160 7.54235 152.837 0.378906 144 0.378906C135.163 0.378906 128 7.54235 128 16.3789C128 25.2155 135.163 32.3789 144 32.3789Z" fill="#5D50C6"/>
<path d="M148.8 8.57812H139.2C137.533 8.57812 136.2 9.91145 136.2 11.5781V21.1781C136.2 22.8448 137.533 24.1781 139.2 24.1781H148.8C150.467 24.1781 151.8 22.8448 151.8 21.1781V11.5781C151.8 9.91145 150.467 8.57812 148.8 8.57812ZM149.667 10.3781H150V13.0448H147.333V10.3781H149.667ZM141.8 14.7781C142.267 14.1115 143.133 13.6448 144 13.6448C144.867 13.6448 145.733 14.1115 146.2 14.7781C146.533 15.2448 146.733 15.7781 146.733 16.3781C146.733 17.9115 145.467 19.1115 144 19.1115C142.533 19.1115 141.267 17.9115 141.267 16.3781C141.267 15.7781 141.467 15.2448 141.8 14.7781ZM150.267 21.1781C150.267 21.9781 149.6 22.6448 148.8 22.6448H139.2C138.4 22.6448 137.733 21.9781 137.733 21.1781V14.7781H140.067C139.867 15.2448 139.733 15.8448 139.733 16.3781C139.733 18.7115 141.667 20.6448 144 20.6448C146.333 20.6448 148.267 18.7115 148.267 16.3781C148.267 15.8448 148.133 15.2448 147.933 14.7781H150.267L150.267 21.1781Z" fill="white"/>
</svg>
