<svg width="66" height="89" viewBox="0 0 66 89" fill="none" xmlns="http://www.w3.org/2000/svg">
<g filter="url(#filter0_ddd_1156_1687)">
<rect x="16.603" y="0.0429688" width="32.8527" height="32.8527" rx="16.4264" fill="#F85E9F"/>
<path d="M39.4873 10.0233C39.1449 9.67195 38.6382 9.54105 38.1658 9.67884L27.1487 12.8826C26.6503 13.0211 26.297 13.4186 26.2018 13.9236C26.1045 14.4376 26.4442 15.09 26.8879 15.3629L30.3326 17.4801C30.686 17.6971 31.142 17.6427 31.4344 17.3478L35.379 13.3786C35.5775 13.1719 35.9062 13.1719 36.1048 13.3786C36.3034 13.5784 36.3034 13.9023 36.1048 14.1089L32.1533 18.0788C31.8602 18.373 31.8055 18.8312 32.0211 19.1867L34.126 22.666C34.3724 23.0794 34.797 23.3136 35.2625 23.3136C35.3174 23.3136 35.379 23.3136 35.4338 23.3067C35.9678 23.2379 36.3923 22.8727 36.5498 22.356L39.8159 11.353C39.9597 10.8845 39.8296 10.3747 39.4873 10.0233Z" fill="white"/>
</g>
<defs>
<filter id="filter0_ddd_1156_1687" x="0.689982" y="0.0429688" width="64.6789" height="88.2906" filterUnits="userSpaceOnUse" color-interpolation-filters="sRGB">
<feFlood flood-opacity="0" result="BackgroundImageFix"/>
<feColorMatrix in="SourceAlpha" type="matrix" values="0 0 0 0 0 0 0 0 0 0 0 0 0 0 0 0 0 0 127 0" result="hardAlpha"/>
<feOffset dy="9.75316"/>
<feGaussianBlur stdDeviation="4.87658"/>
<feColorMatrix type="matrix" values="0 0 0 0 0 0 0 0 0 0 0 0 0 0 0 0 0 0 0.09 0"/>
<feBlend mode="normal" in2="BackgroundImageFix" result="effect1_dropShadow_1156_1687"/>
<feColorMatrix in="SourceAlpha" type="matrix" values="0 0 0 0 0 0 0 0 0 0 0 0 0 0 0 0 0 0 127 0" result="hardAlpha"/>
<feOffset dy="22.0729"/>
<feGaussianBlur stdDeviation="6.67321"/>
<feColorMatrix type="matrix" values="0 0 0 0 0 0 0 0 0 0 0 0 0 0 0 0 0 0 0.05 0"/>
<feBlend mode="normal" in2="effect1_dropShadow_1156_1687" result="effect2_dropShadow_1156_1687"/>
<feColorMatrix in="SourceAlpha" type="matrix" values="0 0 0 0 0 0 0 0 0 0 0 0 0 0 0 0 0 0 127 0" result="hardAlpha"/>
<feOffset dy="39.526"/>
<feGaussianBlur stdDeviation="7.95652"/>
<feColorMatrix type="matrix" values="0 0 0 0 0 0 0 0 0 0 0 0 0 0 0 0 0 0 0.01 0"/>
<feBlend mode="normal" in2="effect2_dropShadow_1156_1687" result="effect3_dropShadow_1156_1687"/>
<feBlend mode="normal" in="SourceGraphic" in2="effect3_dropShadow_1156_1687" result="shape"/>
</filter>
</defs>
</svg>
