<svg width="118" height="85" viewBox="0 0 118 85" fill="none" xmlns="http://www.w3.org/2000/svg">
<g filter="url(#filter0_dd_1156_1693)">
<rect x="16.7446" y="0.503906" width="85.2118" height="28.7461" rx="14.3731" fill="white"/>
<path fill-rule="evenodd" clip-rule="evenodd" d="M34.9678 14.0158C34.9678 11.6546 36.9409 9.74609 39.3276 9.74609C41.7211 9.74609 43.6943 11.6546 43.6943 14.0158C43.6943 15.2057 43.2615 16.3103 42.5493 17.2466C41.7636 18.2793 40.7951 19.1792 39.705 19.8855C39.4555 20.0487 39.2304 20.061 38.9565 19.8855C37.8602 19.1792 36.8918 18.2793 36.1127 17.2466C35.4 16.3103 34.9678 15.2057 34.9678 14.0158ZM37.8908 14.1488C37.8908 14.9398 38.5362 15.5619 39.3276 15.5619C40.1196 15.5619 40.7713 14.9398 40.7713 14.1488C40.7713 13.3639 40.1196 12.7115 39.3276 12.7115C38.5362 12.7115 37.8908 13.3639 37.8908 14.1488Z" fill="#FACD49"/>
<path d="M53.9309 13.2251H52.3211V17.3789H51.3222V13.2251H49.7124V12.2837H53.9309V13.2251ZM55.4646 16.6171C55.9317 16.6171 56.3629 16.2794 56.3629 15.611C56.3629 14.9427 55.9317 14.6049 55.4646 14.6049C54.9975 14.6049 54.5663 14.9427 54.5663 15.611C54.5663 16.2722 54.9975 16.6171 55.4646 16.6171ZM55.4646 13.7353C56.521 13.7353 57.3187 14.5187 57.3187 15.611C57.3187 16.6962 56.521 17.4867 55.4646 17.4867C54.4082 17.4867 53.6105 16.6962 53.6105 15.611C53.6105 14.5187 54.4082 13.7353 55.4646 13.7353ZM59.029 18.7443H58.0732V13.8431H59.0003V14.2743C59.1584 14.0012 59.5536 13.7641 60.0854 13.7641C61.1203 13.7641 61.7168 14.5546 61.7168 15.6038C61.7168 16.6746 61.0484 17.4651 60.0495 17.4651C59.5608 17.4651 59.2015 17.2711 59.029 17.034V18.7443ZM60.7753 15.611C60.7753 14.9858 60.3873 14.6193 59.8986 14.6193C59.4099 14.6193 59.0146 14.9858 59.0146 15.611C59.0146 16.2362 59.4099 16.6099 59.8986 16.6099C60.3873 16.6099 60.7753 16.2434 60.7753 15.611ZM65.3199 14.6049H66.1033C66.5991 14.6049 66.901 14.3174 66.901 13.8791C66.901 13.4263 66.5991 13.146 66.1033 13.146H65.3199V14.6049ZM66.2254 15.4601H65.3127V17.3789H64.321V12.2837H66.2254C67.2315 12.2837 67.8999 12.952 67.8999 13.8719C67.8999 14.7989 67.2315 15.4601 66.2254 15.4601ZM69.5141 17.3789H68.5582V12.1759H69.5141V17.3789ZM70.3007 16.4159C70.3007 15.7835 70.7678 15.4314 71.3571 15.3451L72.2267 15.2158C72.4279 15.187 72.4926 15.0864 72.4926 14.9642C72.4926 14.7127 72.2986 14.5043 71.8961 14.5043C71.4793 14.5043 71.2493 14.7702 71.2206 15.0792L70.3726 14.8996C70.4301 14.3462 70.9403 13.7353 71.8889 13.7353C73.01 13.7353 73.4268 14.3677 73.4268 15.0792V16.8184C73.4268 17.0052 73.4484 17.2567 73.47 17.3789H72.5932C72.5716 17.2855 72.5573 17.0914 72.5573 16.9549C72.3776 17.2352 72.0398 17.4795 71.5152 17.4795C70.7606 17.4795 70.3007 16.9693 70.3007 16.4159ZM71.7164 16.7681C72.1189 16.7681 72.4926 16.574 72.4926 15.9488V15.7907L71.6949 15.9129C71.4505 15.9488 71.2565 16.0853 71.2565 16.3584C71.2565 16.5668 71.4074 16.7681 71.7164 16.7681ZM75.9645 14.6193C75.4758 14.6193 75.0662 14.9714 75.0662 15.611C75.0662 16.2506 75.483 16.6099 75.9717 16.6099C76.4603 16.6099 76.7047 16.2866 76.7837 16.0135L77.6246 16.2937C77.4665 16.883 76.9131 17.4867 75.9717 17.4867C74.9296 17.4867 74.1104 16.6962 74.1104 15.611C74.1104 14.5187 74.9152 13.7353 75.9429 13.7353C76.9059 13.7353 77.4521 14.3318 77.603 14.9283L76.7478 15.2158C76.6616 14.9211 76.4388 14.6193 75.9645 14.6193ZM78.9894 15.2086H80.5705C80.5561 14.8564 80.3261 14.5115 79.78 14.5115C79.2841 14.5115 79.011 14.8852 78.9894 15.2086ZM80.6639 16.1284L81.4616 16.3656C81.282 16.9765 80.7214 17.4867 79.8518 17.4867C78.8816 17.4867 78.0265 16.7896 78.0265 15.5966C78.0265 14.4684 78.8601 13.7353 79.7656 13.7353C80.8579 13.7353 81.5119 14.4324 81.5119 15.5679C81.5119 15.7044 81.4975 15.8482 81.4975 15.8625H78.9679C78.9894 16.3297 79.3847 16.6674 79.859 16.6674C80.3046 16.6674 80.5489 16.4447 80.6639 16.1284ZM81.9628 16.3944L82.782 16.2147C82.8036 16.495 83.012 16.7537 83.4288 16.7537C83.745 16.7537 83.8959 16.5884 83.8959 16.4015C83.8959 16.2434 83.7881 16.1141 83.5151 16.0566L83.0479 15.9488C82.3652 15.7979 82.0562 15.3882 82.0562 14.8924C82.0562 14.2599 82.6167 13.7353 83.3785 13.7353C84.3846 13.7353 84.7224 14.3749 84.7655 14.7558L83.9678 14.9355C83.9391 14.7271 83.7881 14.4612 83.3857 14.4612C83.1342 14.4612 82.9329 14.6121 82.9329 14.8133C82.9329 14.9858 83.0623 15.0936 83.2563 15.1295L83.7594 15.2373C84.4565 15.381 84.8086 15.8051 84.8086 16.3225C84.8086 16.8974 84.3631 17.4867 83.436 17.4867C82.3724 17.4867 82.0059 16.7968 81.9628 16.3944Z" fill="#393E46"/>
</g>
<defs>
<filter id="filter0_dd_1156_1693" x="0.831584" y="0.503906" width="117.038" height="84.1851" filterUnits="userSpaceOnUse" color-interpolation-filters="sRGB">
<feFlood flood-opacity="0" result="BackgroundImageFix"/>
<feColorMatrix in="SourceAlpha" type="matrix" values="0 0 0 0 0 0 0 0 0 0 0 0 0 0 0 0 0 0 127 0" result="hardAlpha"/>
<feOffset dy="22.0729"/>
<feGaussianBlur stdDeviation="6.67321"/>
<feColorMatrix type="matrix" values="0 0 0 0 0 0 0 0 0 0 0 0 0 0 0 0 0 0 0.05 0"/>
<feBlend mode="normal" in2="BackgroundImageFix" result="effect1_dropShadow_1156_1693"/>
<feColorMatrix in="SourceAlpha" type="matrix" values="0 0 0 0 0 0 0 0 0 0 0 0 0 0 0 0 0 0 127 0" result="hardAlpha"/>
<feOffset dy="39.526"/>
<feGaussianBlur stdDeviation="7.95652"/>
<feColorMatrix type="matrix" values="0 0 0 0 0 0 0 0 0 0 0 0 0 0 0 0 0 0 0.01 0"/>
<feBlend mode="normal" in2="effect1_dropShadow_1156_1693" result="effect2_dropShadow_1156_1693"/>
<feBlend mode="normal" in="SourceGraphic" in2="effect2_dropShadow_1156_1693" result="shape"/>
</filter>
</defs>
</svg>
