<svg width="184" height="177" viewBox="0 0 184 177" fill="none" xmlns="http://www.w3.org/2000/svg">
<g clip-path="url(#clip0_1156_1557)">
<path d="M4.83998 128.32C3.39998 128.32 2.22998 129.5 2.22998 130.95C2.22998 132.4 3.39998 133.58 4.83998 133.58C6.27998 133.58 7.44998 132.4 7.44998 130.95C7.44998 129.5 6.27998 128.32 4.83998 128.32Z" fill="#FF5722"/>
<path d="M49.4999 133.58C50.9414 133.58 52.1099 132.403 52.1099 130.95C52.1099 129.498 50.9414 128.32 49.4999 128.32C48.0584 128.32 46.8899 129.498 46.8899 130.95C46.8899 132.403 48.0584 133.58 49.4999 133.58Z" fill="#FF5722"/>
<path d="M27.1701 128.32C25.7301 128.32 24.5601 129.5 24.5601 130.95C24.5601 132.4 25.7301 133.58 27.1701 133.58C28.6101 133.58 29.7801 132.4 29.7801 130.95C29.7801 129.5 28.6101 128.32 27.1701 128.32Z" fill="#FF5722"/>
<path d="M26.7999 106.939C25.3599 106.939 24.1899 108.119 24.1899 109.569C24.1899 111.019 25.3599 112.199 26.7999 112.199C28.2399 112.199 29.4099 111.019 29.4099 109.569C29.4099 108.119 28.2399 106.939 26.7999 106.939Z" fill="#FF5722"/>
<path d="M4.47011 106.939C3.03011 106.939 1.86011 108.119 1.86011 109.569C1.86011 111.019 3.03011 112.199 4.47011 112.199C5.91011 112.199 7.08011 111.019 7.08011 109.569C7.08011 108.119 5.91011 106.939 4.47011 106.939Z" fill="#FF5722"/>
<path d="M71.4601 106.939C70.0201 106.939 68.8501 108.119 68.8501 109.569C68.8501 111.019 70.0201 112.199 71.4601 112.199C72.9001 112.199 74.0701 111.019 74.0701 109.569C74.0701 108.119 72.9001 106.939 71.4601 106.939Z" fill="#FF5722"/>
<path d="M49.13 106.939C47.69 106.939 46.52 108.119 46.52 109.569C46.52 111.019 47.69 112.199 49.13 112.199C50.57 112.199 51.74 111.019 51.74 109.569C51.74 108.119 50.57 106.939 49.13 106.939Z" fill="#FF5722"/>
<path d="M4.83998 171.1C3.39998 171.1 2.22998 172.28 2.22998 173.73C2.22998 175.18 3.39998 176.36 4.83998 176.36C6.27998 176.36 7.44998 175.18 7.44998 173.73C7.44998 172.28 6.27998 171.1 4.83998 171.1Z" fill="#FF5722"/>
<path d="M26.7999 149.711C25.3599 149.711 24.1899 150.891 24.1899 152.341C24.1899 153.791 25.3599 154.971 26.7999 154.971C28.2399 154.971 29.4099 153.791 29.4099 152.341C29.4099 150.891 28.2399 149.711 26.7999 149.711Z" fill="#FF5722"/>
<path d="M4.47011 149.711C3.03011 149.711 1.86011 150.891 1.86011 152.341C1.86011 153.791 3.03011 154.971 4.47011 154.971C5.91011 154.971 7.08011 153.791 7.08011 152.341C7.08011 150.891 5.91011 149.711 4.47011 149.711Z" fill="#FF5722"/>
<path d="M93.4201 85.5508C91.9801 85.5508 90.8101 86.7308 90.8101 88.1808C90.8101 89.6308 91.9801 90.8108 93.4201 90.8108C94.8601 90.8108 96.0301 89.6308 96.0301 88.1808C96.0301 86.7308 94.8601 85.5508 93.4201 85.5508Z" fill="#FF5722"/>
<path d="M48.7599 85.5508C47.3199 85.5508 46.1499 86.7308 46.1499 88.1808C46.1499 89.6308 47.3199 90.8108 48.7599 90.8108C50.1999 90.8108 51.3699 89.6308 51.3699 88.1808C51.3699 86.7308 50.1999 85.5508 48.7599 85.5508Z" fill="#FF5722"/>
<path d="M71.09 90.8108C72.5314 90.8108 73.7 89.6333 73.7 88.1808C73.7 86.7283 72.5314 85.5508 71.09 85.5508C69.6485 85.5508 68.48 86.7283 68.48 88.1808C68.48 89.6333 69.6485 90.8108 71.09 90.8108Z" fill="#FF5722"/>
<path d="M26.4201 85.5508C24.9801 85.5508 23.8101 86.7308 23.8101 88.1808C23.8101 89.6308 24.9801 90.8108 26.4201 90.8108C27.8601 90.8108 29.0301 89.6308 29.0301 88.1808C29.0301 86.7308 27.8701 85.5508 26.4201 85.5508Z" fill="#FF5722"/>
<path d="M4.08998 85.5508C2.64998 85.5508 1.47998 86.7308 1.47998 88.1808C1.47998 89.6308 2.64998 90.8108 4.08998 90.8108C5.52998 90.8108 6.69998 89.6308 6.69998 88.1808C6.69998 86.7308 5.52998 85.5508 4.08998 85.5508Z" fill="#FF5722"/>
<path d="M93.0399 64.1602C91.5999 64.1602 90.4299 65.3402 90.4299 66.7902C90.4299 68.2402 91.5999 69.4202 93.0399 69.4202C94.4799 69.4202 95.6499 68.2402 95.6499 66.7902C95.6499 65.3402 94.4799 64.1602 93.0399 64.1602Z" fill="#FF5722"/>
<path d="M70.7101 64.1602C69.2701 64.1602 68.1001 65.3402 68.1001 66.7902C68.1001 68.2402 69.2701 69.4202 70.7101 69.4202C72.1501 69.4202 73.3201 68.2402 73.3201 66.7902C73.3201 65.3402 72.1501 64.1602 70.7101 64.1602Z" fill="#FF5722"/>
<path d="M48.38 64.1602C46.94 64.1602 45.77 65.3402 45.77 66.7902C45.77 68.2402 46.94 69.4202 48.38 69.4202C49.82 69.4202 50.99 68.2402 50.99 66.7902C50.99 65.3402 49.82 64.1602 48.38 64.1602Z" fill="#FF5722"/>
<path d="M115.38 64.1602C113.94 64.1602 112.77 65.3402 112.77 66.7902C112.77 68.2402 113.94 69.4202 115.38 69.4202C116.82 69.4202 117.99 68.2402 117.99 66.7902C117.99 65.3402 116.82 64.1602 115.38 64.1602Z" fill="#FF5722"/>
<path d="M3.72011 64.1602C2.28011 64.1602 1.11011 65.3402 1.11011 66.7902C1.11011 68.2402 2.28011 69.4202 3.72011 69.4202C5.16011 69.4202 6.33011 68.2402 6.33011 66.7902C6.33011 65.3402 5.16011 64.1602 3.72011 64.1602Z" fill="#FF5722"/>
<path d="M26.0499 64.1602C24.6099 64.1602 23.4399 65.3402 23.4399 66.7902C23.4399 68.2402 24.6099 69.4202 26.0499 69.4202C27.4899 69.4202 28.6599 68.2402 28.6599 66.7902C28.6599 65.3402 27.4899 64.1602 26.0499 64.1602Z" fill="#FF5722"/>
<path d="M3.34999 42.7695C1.90999 42.7695 0.73999 43.9495 0.73999 45.3995C0.73999 46.8495 1.90999 48.0295 3.34999 48.0295C4.78999 48.0295 5.95999 46.8495 5.95999 45.3995C5.95999 43.9495 4.78999 42.7695 3.34999 42.7695Z" fill="#FF5722"/>
<path d="M92.6701 48.0295C94.1115 48.0295 95.2801 46.852 95.2801 45.3995C95.2801 43.947 94.1115 42.7695 92.6701 42.7695C91.2286 42.7695 90.0601 43.947 90.0601 45.3995C90.0601 46.852 91.2286 48.0295 92.6701 48.0295Z" fill="#FF5722"/>
<path d="M137.33 48.0295C138.771 48.0295 139.94 46.852 139.94 45.3995C139.94 43.947 138.771 42.7695 137.33 42.7695C135.889 42.7695 134.72 43.947 134.72 45.3995C134.72 46.852 135.889 48.0295 137.33 48.0295Z" fill="#FF5722"/>
<path d="M70.34 42.7695C68.9 42.7695 67.73 43.9495 67.73 45.3995C67.73 46.8495 68.9 48.0295 70.34 48.0295C71.78 48.0295 72.95 46.8495 72.95 45.3995C72.95 43.9495 71.78 42.7695 70.34 42.7695Z" fill="#FF5722"/>
<path d="M48.0099 42.7695C46.5699 42.7695 45.3999 43.9495 45.3999 45.3995C45.3999 46.8495 46.5699 48.0295 48.0099 48.0295C49.4499 48.0295 50.6199 46.8495 50.6199 45.3995C50.6199 43.9495 49.4499 42.7695 48.0099 42.7695Z" fill="#FF5722"/>
<path d="M25.6801 42.7695C24.2401 42.7695 23.0701 43.9495 23.0701 45.3995C23.0701 46.8495 24.2401 48.0295 25.6801 48.0295C27.1201 48.0295 28.2901 46.8495 28.2901 45.3995C28.2901 43.9495 27.1201 42.7695 25.6801 42.7695Z" fill="#FF5722"/>
<path d="M115 42.7695C113.56 42.7695 112.39 43.9495 112.39 45.3995C112.39 46.8495 113.56 48.0295 115 48.0295C116.44 48.0295 117.61 46.8495 117.61 45.3995C117.61 43.9495 116.44 42.7695 115 42.7695Z" fill="#FF5722"/>
<path d="M2.98012 26.6409C4.42158 26.6409 5.59012 25.4634 5.59012 24.0109C5.59012 22.5584 4.42158 21.3809 2.98012 21.3809C1.53865 21.3809 0.370117 22.5584 0.370117 24.0109C0.370117 25.4634 1.53865 26.6409 2.98012 26.6409Z" fill="#FF5722"/>
<path d="M114.63 21.3906C113.19 21.3906 112.02 22.5706 112.02 24.0206C112.02 25.4706 113.19 26.6506 114.63 26.6506C116.07 26.6506 117.24 25.4706 117.24 24.0206C117.24 22.5706 116.07 21.3906 114.63 21.3906Z" fill="#FF5722"/>
<path d="M25.3099 21.3906C23.8699 21.3906 22.7 22.5706 22.7 24.0206C22.7 25.4706 23.8699 26.6506 25.3099 26.6506C26.7499 26.6506 27.92 25.4706 27.92 24.0206C27.92 22.5706 26.7499 21.3906 25.3099 21.3906Z" fill="#FF5722"/>
<path d="M69.9701 21.3906C68.5301 21.3906 67.3601 22.5706 67.3601 24.0206C67.3601 25.4706 68.5301 26.6506 69.9701 26.6506C71.4101 26.6506 72.5801 25.4706 72.5801 24.0206C72.5801 22.5706 71.4101 21.3906 69.9701 21.3906Z" fill="#FF5722"/>
<path d="M47.64 21.3906C46.2 21.3906 45.03 22.5706 45.03 24.0206C45.03 25.4706 46.2 26.6506 47.64 26.6506C49.08 26.6506 50.25 25.4706 50.25 24.0206C50.25 22.5706 49.08 21.3906 47.64 21.3906Z" fill="#FF5722"/>
<path d="M92.2999 21.3906C90.8599 21.3906 89.6899 22.5706 89.6899 24.0206C89.6899 25.4706 90.8599 26.6506 92.2999 26.6506C93.7399 26.6506 94.9099 25.4706 94.9099 24.0206C94.9099 22.5706 93.7399 21.3906 92.2999 21.3906Z" fill="#FF5722"/>
<path d="M159.29 21.3906C157.85 21.3906 156.68 22.5706 156.68 24.0206C156.68 25.4706 157.85 26.6506 159.29 26.6506C160.73 26.6506 161.9 25.4706 161.9 24.0206C161.9 22.5706 160.74 21.3906 159.29 21.3906Z" fill="#FF5722"/>
<path d="M136.96 21.3906C135.52 21.3906 134.35 22.5706 134.35 24.0206C134.35 25.4706 135.52 26.6506 136.96 26.6506C138.4 26.6506 139.57 25.4706 139.57 24.0206C139.57 22.5706 138.41 21.3906 136.96 21.3906Z" fill="#FF5722"/>
<path d="M24.9401 5.25023C26.3801 5.25023 27.5501 4.07023 27.5501 2.62023C27.5501 1.17023 26.3801 -0.00976562 24.9401 -0.00976562C23.5001 -0.00976562 22.3301 1.17023 22.3301 2.62023C22.3301 4.07023 23.5001 5.25023 24.9401 5.25023Z" fill="#FF5722"/>
<path d="M2.61 5.25C4.05 5.25 5.22 4.07 5.22 2.62C5.22 1.17 4.04 0 2.61 0C1.18 0 0 1.18 0 2.63C0 4.08 1.17 5.26 2.61 5.26V5.25Z" fill="#FF5722"/>
<path d="M158.92 5.26C160.362 5.26 161.53 4.08251 161.53 2.63C161.53 1.17749 160.362 0 158.92 0C157.479 0 156.31 1.17749 156.31 2.63C156.31 4.08251 157.479 5.26 158.92 5.26Z" fill="#FF5722"/>
<path d="M91.9301 5.25023C93.3701 5.25023 94.5401 4.07023 94.5401 2.62023C94.5401 1.17023 93.3701 -0.00976562 91.9301 -0.00976562C90.4901 -0.00976562 89.3201 1.17023 89.3201 2.62023C89.3201 4.07023 90.4901 5.25023 91.9301 5.25023Z" fill="#FF5722"/>
<path d="M114.26 5.25023C115.7 5.25023 116.87 4.07023 116.87 2.62023C116.87 1.17023 115.7 -0.00976562 114.26 -0.00976562C112.82 -0.00976562 111.65 1.17023 111.65 2.62023C111.65 4.07023 112.82 5.25023 114.26 5.25023Z" fill="#FF5722"/>
<path d="M136.59 5.25023C138.03 5.25023 139.2 4.07023 139.2 2.62023C139.2 1.17023 138.03 -0.00976562 136.59 -0.00976562C135.15 -0.00976562 133.98 1.17023 133.98 2.62023C133.98 4.07023 135.15 5.25023 136.59 5.25023Z" fill="#FF5722"/>
<path d="M47.2699 5.25023C48.7099 5.25023 49.8799 4.07023 49.8799 2.62023C49.8799 1.17023 48.7099 -0.00976562 47.2699 -0.00976562C45.8299 -0.00976562 44.6599 1.17023 44.6599 2.62023C44.6599 4.07023 45.8299 5.25023 47.2699 5.25023Z" fill="#FF5722"/>
<path d="M181.25 5.25023C182.69 5.25023 183.86 4.07023 183.86 2.62023C183.86 1.17023 182.7 -0.00976562 181.25 -0.00976562C179.8 -0.00976562 178.64 1.17023 178.64 2.62023C178.64 4.07023 179.81 5.25023 181.25 5.25023Z" fill="#FF5722"/>
<path d="M69.6 5.25023C71.04 5.25023 72.21 4.07023 72.21 2.62023C72.21 1.17023 71.04 -0.00976562 69.6 -0.00976562C68.16 -0.00976562 66.99 1.17023 66.99 2.62023C66.99 4.07023 68.16 5.25023 69.6 5.25023Z" fill="#FF5722"/>
</g>
<defs>
<clipPath id="clip0_1156_1557">
<rect width="183.86" height="176.35" fill="white"/>
</clipPath>
</defs>
</svg>
