<svg width="13" height="14" viewBox="0 0 13 14" fill="none" xmlns="http://www.w3.org/2000/svg">
<path fill-rule="evenodd" clip-rule="evenodd" d="M1.96777 6.01582C1.96777 3.65458 3.94093 1.74609 6.32764 1.74609C8.72112 1.74609 10.6943 3.65458 10.6943 6.01582C10.6943 7.20565 10.2615 8.31028 9.54931 9.24658C8.76357 10.2793 7.79513 11.1792 6.70498 11.8855C6.45551 12.0487 6.23036 12.061 5.95651 11.8855C4.86022 11.1792 3.89176 10.2793 3.11274 9.24658C2.39998 8.31028 1.96777 7.20565 1.96777 6.01582ZM4.89076 6.14877C4.89076 6.93975 5.53625 7.5619 6.32764 7.5619C7.1196 7.5619 7.77131 6.93975 7.77131 6.14877C7.77131 5.3639 7.1196 4.71148 6.32764 4.71148C5.53625 4.71148 4.89076 5.3639 4.89076 6.14877Z" fill="#FACD49"/>
</svg>
