<svg width="65" height="171" viewBox="0 0 65 171" fill="none" xmlns="http://www.w3.org/2000/svg">
<g clip-path="url(#clip0_1156_1362)">
<path d="M44.0254 170.703L65 170.703L54.5127 160.216L44.0254 170.703Z" fill="#FF5722"/>
<path d="M44.0254 135.164L65 135.164L54.5127 124.677L44.0254 135.164Z" fill="#FF5722"/>
<path d="M44.0254 99.6094L65 99.6094L54.5127 89.1221L44.0254 99.6094Z" fill="#FF5722"/>
<path d="M44.0254 64.0703L65 64.0703L54.5127 53.583L44.0254 64.0703Z" fill="#FF5722"/>
<path d="M44.0254 28.5352L65 28.5352L54.5127 18.0327L44.0254 28.5352Z" fill="#FF5722"/>
<path d="M0.000263214 153.426L20.9749 153.426L10.4876 142.938L0.000263214 153.426Z" fill="#FF5722"/>
<path d="M1.90735e-05 117.871L20.9746 117.871L10.4873 107.384L1.90735e-05 117.871Z" fill="#FF5722"/>
<path d="M1.90735e-05 82.332L20.9746 82.332L10.4873 71.8447L1.90735e-05 82.332Z" fill="#FF5722"/>
<path d="M1.90735e-05 46.793L20.9746 46.793L10.4873 36.3057L1.90735e-05 46.793Z" fill="#FF5722"/>
<path d="M1.90735e-05 11.2422L20.9746 11.2422L10.4873 0.754896L1.90735e-05 11.2422Z" fill="#FF5722"/>
</g>
<defs>
<clipPath id="clip0_1156_1362">
<rect width="65" height="169.949" fill="white" transform="translate(65 170.703) rotate(180)"/>
</clipPath>
</defs>
</svg>
