<svg width="25" height="24" viewBox="0 0 25 24" fill="none" xmlns="http://www.w3.org/2000/svg">
<path d="M12.4688 2C6.94875 2 2.46875 6.48 2.46875 12C2.46875 17.52 6.94875 22 12.4688 22C17.9888 22 22.4688 17.52 22.4688 12C22.4688 6.48 17.9988 2 12.4688 2ZM15.4688 14.23L12.5687 15.9C12.2087 16.11 11.8088 16.21 11.4187 16.21C11.0188 16.21 10.6287 16.11 10.2688 15.9C9.54875 15.48 9.11875 14.74 9.11875 13.9V10.55C9.11875 9.72 9.54875 8.97 10.2688 8.55C10.9888 8.13 11.8487 8.13 12.5787 8.55L15.4787 10.22C16.1987 10.64 16.6287 11.38 16.6287 12.22C16.6287 13.06 16.1987 13.81 15.4688 14.23Z" fill="#5D50C6"/>
</svg>
