<svg width="48" height="49" viewBox="0 0 48 49" fill="none" xmlns="http://www.w3.org/2000/svg">
<path fill-rule="evenodd" clip-rule="evenodd" d="M43.5744 21.4589C43.3036 21.7221 42.9362 21.8723 42.5494 21.8723C41.118 21.8723 39.9574 22.9999 39.9574 24.3715C39.9574 25.7525 41.1044 26.8743 42.5222 26.8895C43.321 26.8969 44 27.4381 44 28.2141V33.0339C44 37.0907 40.615 40.3809 36.4372 40.3809H30.1316C29.4796 40.3809 28.9516 39.8679 28.9516 39.2347V35.1759C28.9516 34.3867 28.3134 33.7667 27.501 33.7667C26.708 33.7667 26.0502 34.3867 26.0502 35.1759V39.2347C26.0502 39.8679 25.5222 40.3809 24.8724 40.3809H11.5629C7.40426 40.3809 4 37.0925 4 33.0339V28.2141C4 27.4381 4.67892 26.8969 5.47776 26.8895C6.89748 26.8743 8.04256 25.7525 8.04256 24.3715C8.04256 23.0373 6.9207 22.0227 5.45068 22.0227C5.06382 22.0227 4.69632 21.8723 4.42554 21.6093C4.15474 21.3463 4 20.9893 4 20.6135V15.7467C4 11.6955 7.412 8.38086 11.5822 8.38086H24.8724C25.5222 8.38086 26.0502 8.89384 26.0502 9.52708V14.3374C26.0502 15.1078 26.708 15.7467 27.501 15.7467C28.3134 15.7467 28.9516 15.1078 28.9516 14.3374V9.52708C28.9516 8.89384 29.4796 8.38086 30.1316 8.38086H36.4372C40.615 8.38086 44 11.6692 44 15.7279V20.4631C44 20.8389 43.8452 21.1959 43.5744 21.4589ZM27.501 30.1213C28.3134 30.1213 28.9516 29.4825 28.9516 28.7121V21.1959C28.9516 20.4255 28.3134 19.7866 27.501 19.7866C26.708 19.7866 26.0502 20.4255 26.0502 21.1959V28.7121C26.0502 29.4825 26.708 30.1213 27.501 30.1213Z" fill="white"/>
</svg>
